<?xml version="1.0" standalone="no"?>
<!DOCTYPE svg PUBLIC "-//W3C//DTD SVG 20010904//EN"
 "http://www.w3.org/TR/2001/REC-SVG-20010904/DTD/svg10.dtd">
<svg version="1.0" xmlns="http://www.w3.org/2000/svg"
 width="381.000000pt" height="381.000000pt" viewBox="0 0 381.000000 381.000000"
 preserveAspectRatio="xMidYMid meet">
<metadata>
Created by potrace 1.11, written by Peter Selinger 2001-2013
</metadata>
<g transform="translate(0.000000,381.000000) scale(0.100000,-0.100000)"
fill="#000000" stroke="none">
<path d="M1678 3565 c-3 -3 -32 -8 -64 -10 -32 -3 -72 -8 -89 -12 -16 -3 -48
-7 -70 -8 -56 -2 -125 -16 -125 -25 0 -5 -9 -6 -20 -3 -25 7 -207 -47 -237
-70 -8 -6 -13 -36 -13 -83 0 -49 -5 -77 -14 -87 -21 -21 -4 -39 30 -32 24 5
26 4 11 -5 -10 -6 -37 -13 -60 -15 -75 -6 -117 -17 -127 -34 -6 -11 -9 -12
-10 -3 0 10 -8 8 -27 -6 -16 -11 -53 -27 -83 -37 -30 -10 -84 -33 -120 -50
-36 -18 -94 -42 -128 -54 -35 -11 -85 -32 -113 -48 -51 -27 -109 -84 -109
-105 0 -7 6 -4 13 6 12 17 14 17 20 2 9 -23 23 -20 59 14 17 17 26 30 21 30
-6 0 -22 -11 -37 -25 -28 -26 -42 -33 -31 -15 3 6 0 10 -7 10 -18 0 40 48 81
66 26 12 36 13 41 3 5 -7 16 -9 26 -5 16 6 16 5 -2 -16 -10 -12 -12 -17 -4
-11 8 6 20 13 25 15 6 1 9 10 8 19 -2 12 5 14 29 11 22 -3 29 -1 24 7 -4 6
-12 9 -17 6 -5 -4 -9 -1 -9 4 0 11 27 10 45 -1 6 -4 17 -3 25 3 13 7 12 9 -2
9 -10 0 -18 5 -18 11 0 7 9 9 21 6 15 -4 23 0 26 14 7 25 19 24 26 -2 7 -25
-11 -57 -36 -65 -9 -3 -15 -10 -11 -15 3 -6 11 -5 21 2 12 10 16 10 24 -2 7
-11 9 -10 10 6 1 11 1 24 0 29 -1 4 3 14 9 21 8 10 7 14 -2 18 -10 4 -10 6 1
6 11 1 11 4 0 17 -12 15 -11 16 9 10 16 -5 24 -3 28 9 5 13 9 14 15 4 5 -9 11
-10 21 -2 7 6 17 11 21 11 5 0 12 4 15 8 4 4 1 4 -7 -1 -9 -5 -12 -4 -8 2 10
16 50 24 44 9 -4 -9 12 -7 54 7 32 12 59 25 59 29 0 13 -20 9 -36 -7 -8 -8
-22 -11 -30 -8 -21 8 -10 14 76 43 69 23 146 28 163 11 7 -7 0 -9 -24 -7 -19
2 -25 1 -14 -1 11 -3 25 -9 31 -14 7 -6 16 -4 24 6 7 8 16 13 20 10 5 -3 21 0
37 6 15 7 42 13 58 14 17 2 32 4 35 5 3 1 43 1 90 0 383 -6 456 -12 443 -34
-4 -6 1 -5 10 2 9 8 22 10 29 6 15 -10 19 -10 71 -12 23 -1 36 -7 35 -14 -2
-7 8 -13 22 -14 14 -1 50 -9 80 -16 52 -13 56 -13 72 7 10 11 17 15 18 8 0 -7
-4 -13 -10 -13 -5 0 -10 -5 -10 -11 0 -5 5 -7 10 -4 6 3 10 2 10 -3 0 -9 168
-38 200 -35 7 1 27 -5 42 -13 15 -8 28 -12 28 -10 0 3 15 0 33 -6 17 -5 42
-11 54 -13 11 -2 30 -6 41 -9 21 -7 74 -16 107 -19 11 -1 22 -5 25 -9 3 -3 23
-9 45 -13 30 -5 36 -4 25 4 -12 9 -11 11 9 11 16 0 22 -4 17 -15 -6 -17 9 -21
19 -5 4 6 19 5 41 -5 19 -8 38 -14 42 -15 40 -4 82 -14 82 -20 0 -3 10 -6 23
-6 13 1 21 -4 19 -12 -1 -7 3 -12 10 -10 15 3 56 -18 76 -39 42 -41 84 -65
107 -61 16 3 30 -1 37 -11 12 -14 11 -14 -4 -2 -24 18 -23 5 2 -26 11 -14 20
-38 20 -52 0 -21 -5 -26 -23 -26 -13 1 -28 5 -35 9 -6 4 -16 -1 -23 -12 -8
-12 -20 -18 -33 -15 -18 4 -19 3 -6 -7 11 -9 12 -13 2 -17 -7 -2 -19 -11 -27
-19 -8 -8 -28 -16 -44 -17 -16 -1 -27 -5 -26 -8 2 -3 -10 -13 -26 -23 -39 -23
-34 -27 16 -16 22 5 57 12 78 15 24 4 50 18 68 36 16 16 29 27 29 23 0 -4 9 1
20 11 22 19 28 7 8 -14 -11 -10 -10 -11 3 -6 21 8 39 48 39 85 0 58 -47 130
-84 130 -37 0 -66 12 -66 26 0 8 -5 14 -10 14 -6 0 -23 12 -37 28 -21 22 -25
23 -20 7 7 -19 6 -19 -7 -2 -7 9 -20 17 -28 17 -8 0 -18 4 -23 9 -11 9 -181
60 -230 68 -16 3 -50 9 -75 14 -25 5 -58 11 -74 14 -51 8 -68 16 -58 28 5 7 8
50 7 97 0 47 5 101 12 120 20 58 16 93 -15 123 -15 15 -34 27 -42 27 -7 0 -21
6 -29 14 -9 7 -27 17 -41 21 -21 5 -20 3 8 -14 18 -12 31 -25 28 -30 -3 -4 8
-7 25 -6 21 1 28 -2 25 -12 -3 -7 -1 -13 5 -13 10 0 10 -83 0 -98 -11 -15 -44
-23 -51 -12 -5 8 -17 3 -36 -13 -16 -14 -26 -28 -23 -32 4 -3 17 4 29 17 12
13 19 16 15 8 -7 -21 29 -24 46 -4 13 16 29 19 29 4 0 -5 -7 -10 -16 -10 -9 0
-12 -5 -8 -12 7 -10 7 -178 0 -185 -7 -7 -110 28 -119 41 -20 27 -57 28 -67 3
-9 -22 -9 -22 -9 2 -1 22 -2 23 -19 8 -10 -10 -23 -13 -31 -8 -7 5 -12 10 -11
12 5 13 -15 39 -26 35 -8 -3 -14 -1 -14 5 0 7 -12 8 -30 4 -31 -7 -170 13
-170 24 0 4 -18 5 -40 3 -32 -3 -40 -1 -40 12 0 9 -6 16 -12 16 -7 0 -21 7
-31 14 -13 11 -15 19 -8 37 5 13 10 19 10 13 1 -6 11 -10 24 -10 12 1 30 -2
40 -7 11 -5 30 -4 48 2 30 10 38 4 18 -16 -16 -16 -3 -49 14 -36 6 6 34 9 60
8 26 -1 50 1 52 6 8 11 45 -2 54 -20 7 -11 21 -16 53 -14 23 0 48 -2 53 -7 6
-4 21 -10 35 -12 14 -1 28 -7 31 -12 4 -5 13 -5 22 0 15 9 17 13 17 34 0 7 6
7 20 0 16 -8 18 -8 14 4 -9 24 -35 28 -41 8 -3 -13 -13 -19 -32 -18 -16 1 -27
6 -24 12 2 6 -11 11 -32 12 -19 1 -45 7 -58 13 -12 7 -23 12 -24 11 -11 -7
-33 0 -28 9 4 6 14 8 22 5 8 -4 11 -1 7 5 -3 6 -17 8 -30 5 -13 -4 -40 0 -59
8 -20 9 -43 13 -53 10 -9 -3 -4 4 11 16 22 18 25 25 16 36 -10 12 -9 13 5 8 9
-3 16 -1 16 6 0 6 -4 9 -9 6 -5 -3 -12 1 -15 10 -4 11 0 14 16 12 11 -2 23 3
26 10 3 9 -4 11 -25 6 -31 -7 -55 -24 -35 -24 8 0 11 -10 8 -26 -5 -28 -16
-45 -16 -26 0 7 -11 12 -25 12 -14 0 -25 5 -25 11 0 6 -9 4 -22 -5 -16 -11
-25 -13 -35 -4 -19 15 -16 27 6 21 10 -3 21 2 24 10 3 8 -1 14 -9 14 -8 0 -14
-4 -14 -9 0 -5 -5 -6 -10 -3 -6 3 -13 0 -16 -9 -7 -17 -34 -10 -34 10 0 8 -6
11 -15 8 -8 -4 -15 -13 -15 -22 0 -8 -3 -13 -6 -9 -10 10 7 48 18 41 6 -4 8
-1 6 7 -3 8 -11 13 -17 12 -6 -2 -11 2 -11 7 0 6 6 10 13 11 6 0 3 4 -8 9 -30
13 -39 12 -26 -3 14 -18 4 -27 -28 -27 -23 1 -24 2 -8 11 25 15 22 47 -5 52
l-23 4 23 8 c18 6 20 10 10 16 -19 12 -30 11 -22 -2 5 -9 -1 -10 -20 -5 -18 4
-25 3 -21 -4 3 -5 1 -10 -5 -10 -6 0 -13 7 -16 15 -5 12 -10 13 -20 4 -7 -6
-17 -9 -21 -6 -18 11 -114 21 -199 21 -66 0 -91 3 -87 12 2 6 18 11 36 11 48
0 122 9 135 17 7 4 12 2 12 -4 0 -7 6 -10 13 -7 6 2 23 1 38 -3 21 -6 28 -3
42 21 17 30 11 38 -12 17 -11 -10 -13 -10 -7 0 7 12 -15 18 -26 7z m-403 -175
c-3 -4 -2 -10 2 -13 5 -2 2 -2 -6 0 -8 2 -18 -2 -23 -9 -6 -11 -8 -11 -8 0 0
17 23 41 33 35 4 -2 5 -8 2 -13z m223 -15 c-12 -27 -23 -31 -33 -15 -3 6 1 10
9 10 9 0 16 9 16 21 0 11 4 18 10 14 6 -3 5 -15 -2 -30z m107 15 c8 7 24 9 36
5 21 -7 21 -8 4 -18 -14 -7 -20 -7 -23 1 -2 7 -8 9 -13 6 -6 -3 -5 -11 2 -20
9 -11 7 -14 -10 -14 -11 0 -21 -5 -21 -12 0 -6 -3 -8 -6 -5 -4 4 -1 13 6 22
10 13 9 15 -9 15 -12 0 -31 -5 -43 -11 -28 -15 -31 -6 -7 20 13 14 27 20 40
16 12 -4 19 -1 20 7 1 7 3 5 6 -5 4 -14 8 -16 18 -7z m300 -29 c-6 -5 -25 -12
-43 -16 -33 -7 -33 -6 -16 13 9 11 23 18 30 15 8 -3 14 1 14 8 0 10 3 10 12 1
8 -8 8 -15 3 -21z m-594 -8 c-12 -20 -14 -14 -5 12 4 9 9 14 11 11 3 -2 0 -13
-6 -23z m59 13 c0 -7 -11 -16 -25 -18 -13 -3 -22 -1 -19 3 3 5 12 9 20 9 8 0
12 5 9 10 -3 6 -1 10 4 10 6 0 11 -6 11 -14z m40 4 c0 -5 -4 -10 -9 -10 -6 0
-13 5 -16 10 -3 6 1 10 9 10 9 0 16 -4 16 -10z m253 -14 c3 -7 18 -13 33 -13
26 0 27 0 9 13 -14 11 -15 14 -4 14 8 0 21 -6 28 -12 11 -10 13 -10 7 0 -4 6
-3 12 2 12 6 0 12 -7 16 -15 3 -8 1 -15 -4 -15 -6 0 -10 -6 -10 -14 0 -19 -35
-26 -87 -19 -46 6 -59 23 -18 23 27 0 32 9 13 28 -8 8 -8 12 -1 12 6 0 13 -6
16 -14z m191 -76 c5 -5 15 -6 24 -3 10 4 13 2 8 -5 -4 -7 -17 -12 -30 -12 -23
0 -86 27 -86 37 0 8 73 -7 84 -17z m-119 -10 c3 -5 20 -10 37 -10 31 0 31 0
12 -18 -18 -18 -19 -18 -32 0 -7 10 -17 16 -22 13 -4 -3 -10 2 -14 10 -6 17 9
21 19 5z m-45 -10 c0 -5 -7 -7 -15 -4 -8 4 -15 8 -15 10 0 2 7 4 15 4 8 0 15
-4 15 -10z m424 -8 c3 -5 -1 -9 -9 -9 -8 0 -15 4 -15 9 0 4 4 8 9 8 6 0 12 -4
15 -8z m-284 -12 c0 -5 -4 -10 -10 -10 -5 0 -10 5 -10 10 0 6 5 10 10 10 6 0
10 -4 10 -10z m40 -18 c0 -5 12 -13 28 -18 l27 -10 -32 0 c-22 -1 -33 5 -36
18 -3 10 -1 18 4 18 5 0 9 -4 9 -8z m110 -72 c0 -5 -5 -10 -11 -10 -5 0 -7 5
-4 10 3 6 8 10 11 10 2 0 4 -4 4 -10z m76 0 c13 0 24 -4 24 -9 0 -13 -59 -6
-73 9 -10 10 -8 12 6 6 10 -3 30 -6 43 -6z m56 -22 c-7 -7 -12 -8 -12 -2 0 14
12 26 19 19 2 -3 -1 -11 -7 -17z m112 -7 c-9 -9 -45 -11 -39 -2 3 6 14 9 25 8
10 -1 17 -3 14 -6z m36 -1 c0 -5 -5 -10 -11 -10 -5 0 -7 5 -4 10 3 6 8 10 11
10 2 0 4 -4 4 -10z m127 -26 c-3 -3 -12 -4 -19 -1 -8 3 -5 6 6 6 11 1 17 -2
13 -5z m753 -489 c-14 -8 -29 -14 -35 -14 -5 0 1 6 15 14 14 8 30 14 35 14 6
0 -1 -6 -15 -14z"/>
<path d="M1763 3556 c0 -8 6 -12 14 -9 7 3 10 9 7 14 -8 14 -21 11 -21 -5z"/>
<path d="M1800 3548 c0 -8 21 -18 53 -26 65 -15 77 -15 77 0 0 6 -2 9 -6 6 -5
-5 -63 10 -106 27 -12 5 -18 2 -18 -7z"/>
<path d="M1730 3530 c0 -5 5 -10 11 -10 5 0 7 5 4 10 -3 6 -8 10 -11 10 -2 0
-4 -4 -4 -10z"/>
<path d="M1768 3508 c6 -6 18 -8 28 -6 14 3 12 5 -9 10 -19 3 -25 2 -19 -4z"/>
<path d="M2049 3511 c10 -6 10 -10 1 -16 -16 -10 6 -25 39 -25 20 0 21 2 11
15 -7 8 -16 12 -21 9 -5 -3 -9 2 -9 10 0 9 -8 16 -17 16 -14 0 -15 -2 -4 -9z"/>
<path d="M1670 3506 c0 -2 7 -7 16 -10 8 -3 12 -2 9 4 -6 10 -25 14 -25 6z"/>
<path d="M1720 3500 c-9 -6 -10 -10 -3 -10 6 0 15 5 18 10 8 12 4 12 -15 0z"/>
<path d="M1945 3500 c3 -5 21 -10 38 -10 24 0 28 3 17 10 -20 13 -63 13 -55 0z"/>
<path d="M2120 3485 c0 -9 6 -12 15 -9 14 6 21 -12 16 -39 -1 -5 3 -6 9 -2 5
3 10 13 10 21 0 8 4 13 9 10 5 -4 12 0 14 6 4 10 6 10 6 0 1 -7 13 -17 29 -23
15 -7 22 -13 15 -16 -20 -7 -15 -22 6 -16 12 3 19 14 19 29 0 13 -5 21 -9 18
-5 -3 -8 0 -7 7 2 6 -3 14 -11 17 -8 3 -11 0 -7 -7 4 -6 3 -11 -2 -11 -6 0
-12 7 -16 15 -7 18 -36 20 -36 3 0 -9 -3 -9 -8 -3 -11 17 -52 16 -52 0z"/>
<path d="M2358 3493 c6 -2 18 -2 25 0 6 3 1 5 -13 5 -14 0 -19 -2 -12 -5z"/>
<path d="M2405 3480 c-3 -5 -2 -10 4 -10 5 0 13 5 16 10 3 6 2 10 -4 10 -5 0
-13 -4 -16 -10z"/>
<path d="M2284 3461 c-9 -9 -3 -41 7 -41 6 0 9 6 6 13 -3 8 1 14 9 14 8 0 14
-6 14 -14 0 -7 5 -13 11 -13 5 0 7 5 4 10 -3 6 -2 10 4 10 5 0 12 -6 14 -12 4
-10 8 -10 15 1 6 8 17 11 26 8 8 -3 18 -2 21 3 4 6 -3 10 -14 10 -12 0 -21 4
-21 9 0 8 -87 10 -96 2z"/>
<path d="M2027 3454 c-4 -4 1 -13 11 -20 14 -11 15 -15 3 -26 -12 -11 -13 -11
-6 1 5 9 4 12 -2 8 -6 -4 -18 2 -28 13 -10 11 -23 20 -28 20 -5 0 2 -9 17 -21
28 -22 34 -39 12 -39 -7 0 -20 -8 -27 -17 -11 -15 -11 -16 1 -5 8 6 25 12 40
12 17 0 30 9 41 29 9 16 14 32 10 37 -8 11 -36 16 -44 8z"/>
<path d="M2186 3441 c-3 -5 1 -14 8 -20 12 -10 13 -8 9 8 -6 23 -9 25 -17 12z"/>
<path d="M1934 3424 c9 -8 16 -22 16 -30 0 -17 12 -18 28 -2 18 18 15 27 -8
21 -16 -4 -19 -2 -14 11 4 12 0 16 -16 16 -19 0 -20 -1 -6 -16z"/>
<path d="M2450 3430 c0 -5 5 -10 10 -10 6 0 10 5 10 10 0 6 -4 10 -10 10 -5 0
-10 -4 -10 -10z"/>
<path d="M2425 3420 c3 -5 8 -10 11 -10 2 0 4 5 4 10 0 6 -5 10 -11 10 -5 0
-7 -4 -4 -10z"/>
<path d="M2095 3409 c-10 -14 -1 -21 19 -13 9 3 13 10 10 15 -7 12 -21 11 -29
-2z"/>
<path d="M2294 3403 c21 -3 25 -7 16 -13 -9 -5 -4 -8 13 -7 15 1 27 5 27 8 0
9 -40 19 -65 17 -11 0 -7 -3 9 -5z"/>
<path d="M2380 3400 c-12 -7 -12 -12 -2 -22 9 -9 12 -9 12 1 0 7 5 9 11 6 6
-4 8 -13 5 -21 -3 -8 -1 -14 4 -14 5 0 11 -8 13 -17 2 -10 3 -6 2 9 -1 15 3
29 9 31 7 2 6 9 -3 20 -15 19 -29 21 -51 7z"/>
<path d="M2480 3394 c-14 -8 -19 -14 -11 -14 8 0 11 -6 7 -15 -7 -20 8 -19 28
1 31 30 15 48 -24 28z"/>
<path d="M2240 3380 c0 -6 -4 -9 -9 -5 -5 3 -12 1 -16 -5 -3 -5 3 -10 14 -10
23 0 36 16 21 25 -5 3 -10 1 -10 -5z"/>
<path d="M2055 3370 c-4 -6 6 -10 22 -10 22 0 25 2 13 10 -19 12 -27 12 -35 0z"/>
<path d="M2235 3330 c3 -5 8 -10 11 -10 2 0 4 5 4 10 0 6 -5 10 -11 10 -5 0
-7 -4 -4 -10z"/>
<path d="M2295 3330 c-3 -5 -1 -10 4 -10 6 0 11 5 11 10 0 6 -2 10 -4 10 -3 0
-8 -4 -11 -10z"/>
<path d="M2460 3321 c0 -9 30 -24 36 -18 2 1 -6 8 -16 15 -11 7 -20 8 -20 3z"/>
<path d="M2160 3304 c0 -8 5 -12 10 -9 6 4 8 11 5 16 -9 14 -15 11 -15 -7z"/>
<path d="M2370 3280 c0 -8 -13 -11 -39 -8 -23 2 -39 -1 -38 -7 1 -5 -4 -9 -11
-7 -8 1 -11 -2 -7 -8 3 -6 20 -7 38 -4 18 4 50 7 71 8 22 0 41 7 43 14 3 7 -1
10 -11 6 -9 -3 -23 -1 -31 6 -12 10 -15 10 -15 0z"/>
<path d="M2118 3203 c-34 -5 -37 -23 -4 -23 13 0 26 -6 29 -12 2 -7 4 -1 3 14
0 16 -1 27 -1 26 0 0 -12 -3 -27 -5z"/>
<path d="M2165 3190 c-4 -6 5 -10 19 -10 14 0 26 5 26 10 0 6 -9 10 -19 10
-11 0 -23 -4 -26 -10z"/>
<path d="M980 3160 c-20 -7 -17 -8 17 -7 24 1 43 5 43 10 0 9 -27 8 -60 -3z"/>
<path d="M1745 3150 c-3 -5 -12 -7 -19 -4 -8 3 -17 1 -20 -4 -3 -5 -26 -7 -51
-4 -32 3 -45 1 -45 -8 0 -10 -3 -10 -15 0 -8 7 -15 9 -15 4 0 -5 -19 -8 -42
-8 -24 1 -47 -1 -53 -4 -5 -3 -21 -7 -35 -9 -14 -2 -34 -6 -45 -7 -11 -2 -24
-4 -30 -5 -5 -1 -5 -5 1 -11 5 -5 24 -6 49 0 51 12 101 18 195 24 42 3 83 8
93 12 11 4 17 1 17 -7 1 -10 5 -8 14 4 8 10 16 15 19 10 3 -4 38 -7 79 -7 91
2 93 2 85 11 -4 4 -33 7 -65 9 -31 1 -69 4 -84 7 -16 3 -30 1 -33 -3z"/>
<path d="M2281 3144 c0 -11 3 -14 6 -6 3 7 2 16 -1 19 -3 4 -6 -2 -5 -13z"/>
<path d="M2374 3141 c21 -23 26 -26 26 -11 0 5 -10 15 -22 21 -23 12 -23 12
-4 -10z"/>
<path d="M2420 3150 c-12 -8 -12 -10 -1 -10 11 0 11 -3 1 -15 -10 -12 -10 -19
-2 -27 9 -9 12 -8 13 3 0 11 2 11 7 -2 6 -12 14 -14 40 -7 28 7 32 13 31 41 0
29 -1 30 -9 10 -13 -31 -65 -33 -55 -3 7 22 -2 25 -25 10z"/>
<path d="M1151 3134 c0 -11 3 -14 6 -6 3 7 2 16 -1 19 -3 4 -6 -2 -5 -13z"/>
<path d="M1058 3113 c7 -3 16 -2 19 1 4 3 -2 6 -13 5 -11 0 -14 -3 -6 -6z"/>
<path d="M906 3086 c8 -20 -10 -28 -39 -17 -19 7 -27 5 -40 -10 -9 -10 -23
-16 -32 -13 -8 4 -15 2 -15 -3 0 -6 -9 -14 -21 -19 -20 -9 -20 -10 -3 -24 11
-9 15 -10 10 -2 -4 7 -1 12 8 12 9 0 16 5 16 10 0 6 5 10 11 10 6 0 35 7 64
15 53 16 76 39 50 49 -9 3 -12 0 -9 -8z"/>
<path d="M1345 3090 c-3 -5 -1 -10 4 -10 6 0 11 5 11 10 0 6 -2 10 -4 10 -3 0
-8 -4 -11 -10z"/>
<path d="M970 3080 c0 -5 5 -10 10 -10 6 0 10 5 10 10 0 6 -4 10 -10 10 -5 0
-10 -4 -10 -10z"/>
<path d="M1263 3069 c-35 -9 -65 -14 -68 -11 -9 10 -117 2 -197 -14 -43 -8
-83 -12 -89 -8 -7 4 -9 3 -5 -4 3 -6 -3 -14 -15 -17 -14 -5 -25 -2 -30 6 -5 9
-9 10 -9 3 0 -7 -11 -15 -25 -18 -14 -4 -25 -11 -25 -16 0 -5 6 -7 14 -4 21 8
29 -13 8 -22 -9 -4 -21 -8 -27 -8 -5 -1 -10 -6 -10 -13 0 -6 -4 -15 -8 -20 -5
-4 -7 -3 -5 2 7 22 -18 16 -29 -6 -10 -18 -13 -20 -13 -6 0 20 -11 22 -28 5
-9 -9 -12 -9 -13 2 0 8 -5 4 -10 -9 -5 -14 -15 -21 -23 -18 -8 3 -17 -1 -20
-9 -7 -19 3 -18 39 6 41 27 56 25 23 -4 -15 -12 -26 -25 -24 -27 2 -2 -15 -5
-39 -6 -27 -1 -45 3 -48 10 -2 7 -3 4 -2 -5 2 -10 -4 -23 -13 -30 -13 -11 -15
-10 -10 3 5 13 2 16 -14 11 -14 -3 -16 -7 -7 -13 10 -6 10 -11 1 -22 -10 -12
-9 -16 3 -21 9 -3 13 -11 10 -17 -4 -6 -13 -8 -20 -5 -8 3 -11 -2 -8 -14 4
-16 1 -19 -24 -16 -31 4 -63 -20 -63 -49 0 -7 -4 -17 -10 -20 -19 -12 -10 -26
25 -41 19 -8 35 -19 35 -25 0 -6 7 -9 15 -5 9 3 15 0 15 -10 0 -12 -6 -15 -26
-10 -19 5 -24 4 -18 -5 5 -9 2 -10 -10 -6 -10 4 -22 7 -27 7 -6 0 -8 10 -5 23
3 12 3 16 0 10 -8 -19 -28 -16 -44 7 -8 11 -20 20 -27 20 -12 0 -18 20 -14 43
1 5 -3 5 -9 2 -6 -4 -20 1 -32 11 -19 18 -20 18 -17 -1 6 -30 66 -83 133 -116
66 -32 70 -33 61 -19 -4 6 5 10 19 10 18 0 26 6 27 18 0 11 2 12 6 4 4 -10 9
-9 24 4 13 12 19 13 19 4 0 -7 7 -10 15 -7 8 4 17 1 21 -5 4 -6 3 -8 -3 -5 -6
4 -27 -2 -48 -13 -21 -11 -42 -17 -46 -14 -5 3 -9 1 -9 -4 0 -5 13 -12 30 -15
16 -4 38 -15 48 -25 21 -21 121 -48 217 -58 33 -4 66 -11 73 -16 8 -8 12 -6
12 5 0 31 19 27 40 -8 12 -20 28 -42 36 -50 12 -12 12 -16 -1 -29 -13 -12 -14
-20 -5 -36 6 -11 15 -18 21 -15 5 4 9 -2 9 -11 0 -17 1 -17 13 0 12 17 14 17
20 3 3 -9 2 -19 -3 -22 -5 -3 -7 -12 -3 -20 7 -21 -17 -18 -45 4 -12 11 -20
26 -16 34 6 16 -11 30 -38 32 -12 1 -20 -11 -27 -41 -16 -63 -14 -80 14 -98
14 -9 25 -25 25 -36 0 -10 4 -21 9 -24 5 -4 7 4 4 15 -4 16 -2 20 8 17 8 -3
15 -14 17 -26 6 -59 9 -67 20 -65 7 2 12 -3 12 -11 0 -7 9 -16 20 -19 11 -3
20 -11 20 -17 0 -10 -3 -10 -15 0 -8 6 -20 10 -27 7 -22 -8 52 -34 90 -31 21
1 30 0 20 -2 -19 -6 -33 -34 -16 -34 7 0 7 -4 0 -13 -19 -23 8 -62 46 -65 44
-4 74 -50 70 -107 -3 -40 -3 -40 -41 -37 -61 6 -137 -8 -137 -24 0 -8 -10 -14
-25 -14 -14 0 -33 -10 -43 -22 -27 -35 -115 -122 -140 -138 -30 -20 -31 -84
-2 -100 11 -6 20 -20 20 -31 0 -11 7 -22 16 -26 12 -4 13 -8 3 -14 -10 -6 -10
-11 1 -26 12 -15 12 -16 0 -5 -12 10 -20 6 -50 -27 -38 -42 -40 -45 -84 -112
-16 -24 -33 -46 -38 -47 -4 -2 -5 -8 -2 -13 3 -6 -14 -28 -38 -50 l-43 -39 25
-19 c29 -23 46 -14 55 28 3 16 17 43 31 62 13 18 24 39 24 46 0 7 5 13 10 13
6 0 10 6 10 14 0 7 18 33 40 57 38 42 40 43 46 21 6 -21 8 -22 24 -7 9 8 25
13 34 9 9 -3 16 -2 16 2 0 5 22 7 50 6 27 -2 50 -8 50 -13 0 -4 7 -6 15 -3 18
7 85 -14 85 -27 0 -5 5 -9 11 -9 5 0 7 5 3 11 -10 17 85 1 103 -16 7 -8 20
-12 28 -8 9 3 22 -1 31 -8 9 -7 25 -15 37 -16 27 -4 34 -12 20 -21 -6 -4 15
-7 48 -7 33 0 63 -5 67 -10 4 -6 16 -11 27 -13 11 -2 31 -11 45 -20 14 -9 34
-17 45 -17 11 0 27 -5 35 -10 8 -6 24 -10 35 -11 29 -1 75 -22 75 -33 0 -6 7
-8 15 -5 8 4 22 1 30 -6 8 -7 15 -9 15 -4 0 4 5 3 12 -4 15 -15 58 -16 58 -2
0 6 -3 10 -7 11 -45 4 -93 34 -93 58 0 9 -3 12 -8 6 -9 -14 -50 -17 -57 -4 -4
5 -13 9 -21 9 -9 0 -22 7 -31 16 -9 8 -22 13 -29 10 -7 -3 -16 -1 -20 5 -7 11
-55 33 -66 31 -5 -1 -8 2 -8 6 0 5 -14 9 -31 10 -18 0 -38 10 -50 23 -10 12
-19 17 -19 10 0 -7 -5 -9 -12 -4 -7 4 -17 8 -23 8 -11 0 -15 8 -15 28 0 9 2 9
8 -1 6 -9 19 -2 48 24 26 24 31 31 14 22 -14 -7 -29 -19 -33 -26 -5 -7 -17
-10 -27 -7 -10 3 -20 0 -23 -8 -11 -29 -127 4 -155 45 -8 10 -25 18 -43 18
-16 0 -29 5 -29 11 0 16 -36 59 -44 52 -3 -3 -6 -1 -6 4 0 6 6 14 13 17 9 5 9
7 -1 12 -7 3 -18 12 -26 19 -7 8 -17 11 -22 7 -5 -4 -2 1 5 11 12 15 11 17
-10 17 -13 0 -35 3 -47 7 -18 4 -20 8 -10 14 9 6 9 9 1 9 -6 0 -14 -4 -17 -9
-9 -13 -51 -1 -63 18 -10 16 -8 17 15 14 26 -4 27 -4 7 12 -19 16 -18 16 18
10 31 -6 36 -5 31 8 -3 9 -12 13 -21 10 -11 -5 -14 -3 -9 6 5 7 17 11 27 8 24
-6 24 2 2 18 -15 11 -15 13 5 24 12 7 22 8 22 2 0 -5 -6 -12 -12 -15 -7 -3 -3
-3 10 0 17 4 22 1 22 -15 0 -12 5 -21 10 -21 11 0 16 -3 62 -44 15 -14 37 -27
48 -31 11 -3 20 -12 20 -19 0 -13 41 -36 65 -36 8 0 20 -10 26 -22 8 -14 14
-18 17 -10 2 6 9 9 14 6 6 -4 21 -9 32 -10 53 -9 107 -22 114 -28 3 -4 0 -11
-8 -16 -8 -6 -10 -10 -5 -10 6 0 15 4 20 9 6 6 34 -1 72 -17 50 -20 60 -28 52
-39 -16 -19 6 -17 25 3 28 28 34 25 -179 99 -44 16 -94 34 -112 42 -17 7 -34
13 -38 13 -20 0 -96 43 -92 53 5 15 -52 51 -78 50 -16 -1 -17 -1 -2 3 9 3 17
9 17 14 0 4 8 6 19 3 12 -3 24 3 35 18 18 26 22 9 6 -22 -6 -11 -7 -19 -2 -19
27 0 89 186 79 235 -3 17 0 25 10 25 8 0 11 -4 8 -10 -3 -5 -2 -10 4 -10 5 0
13 5 16 10 3 6 3 10 -2 10 -4 0 -8 20 -8 44 0 24 5 44 10 43 6 -1 9 5 7 14 -1
9 5 22 13 29 20 17 19 31 -2 23 -11 -4 -14 -3 -9 5 4 7 14 12 21 12 9 0 12 6
9 15 -4 8 -2 15 4 15 6 0 16 17 22 38 7 20 16 41 20 46 5 5 6 15 2 24 -4 11
-1 14 10 9 10 -3 24 4 37 19 11 13 19 24 16 24 -3 0 3 8 13 18 9 11 20 17 25
15 4 -2 7 1 7 8 0 8 9 4 23 -8 12 -11 33 -26 47 -32 16 -8 8 4 -24 33 -31 29
-54 42 -64 39 -12 -5 -14 -2 -9 11 9 23 -14 96 -30 96 -15 0 -17 16 -3 25 6 3
10 22 10 41 0 19 6 52 12 74 10 32 20 43 51 55 51 20 79 19 110 -5 18 -14 25
-29 24 -48 -2 -15 1 -31 6 -37 4 -5 14 -19 22 -30 12 -18 13 -16 5 18 -6 28
-4 41 7 52 21 21 22 20 16 -27 -5 -36 -4 -40 10 -35 10 4 17 2 17 -4 0 -6 6
-9 14 -6 22 9 32 -49 12 -68 -8 -9 -12 -23 -9 -32 4 -10 2 -14 -4 -10 -11 7
-33 -34 -33 -63 0 -34 22 -68 51 -81 16 -6 29 -15 29 -19 0 -11 83 14 87 26 6
19 -13 32 -40 27 -19 -4 -26 -10 -23 -19 7 -19 -20 -18 -54 3 -23 13 -28 22
-25 44 3 28 40 77 50 67 3 -2 -6 -15 -20 -28 -23 -22 -23 -24 -7 -36 10 -8 12
-13 5 -14 -7 0 -13 -5 -13 -11 0 -5 4 -8 9 -5 5 4 11 1 13 -5 2 -5 11 -7 20
-4 12 5 15 12 9 27 -10 28 -1 79 15 85 27 10 10 133 -21 158 -17 14 27 85 68
110 15 9 36 34 48 56 l20 40 -26 76 c-20 56 -24 82 -17 97 12 27 5 46 -14 39
-8 -3 -14 0 -14 6 0 6 -9 11 -19 11 -10 0 -21 7 -25 15 -3 8 -12 15 -20 15 -8
0 -19 8 -25 17 -5 10 -13 14 -17 10 -4 -4 -2 -13 4 -19 19 -19 14 -31 -13 -26
-14 3 -25 1 -25 -3 0 -5 4 -9 10 -9 5 0 6 -7 3 -17 -4 -10 -2 -14 4 -10 8 5 7
-1 0 -18 -16 -32 -21 -32 -62 10 -21 21 -49 37 -72 41 -21 4 -33 9 -26 11 7 2
9 11 6 19 -3 9 1 14 13 14 17 0 16 1 -2 16 -18 15 -18 15 2 5 12 -6 25 -7 29
-3 5 4 5 2 2 -4 -4 -7 2 -9 18 -6 16 3 25 0 25 -8 0 -7 7 -9 15 -6 8 3 22 9
32 13 10 4 14 2 10 -4 -4 -6 1 -17 10 -24 14 -12 15 -11 9 9 -10 31 13 37 66
20 26 -9 47 -23 53 -37 8 -18 15 -21 40 -16 93 20 465 9 485 -14 6 -8 73 -31
88 -31 7 0 30 -8 51 -17 37 -16 61 -46 61 -77 0 -7 9 -39 19 -72 18 -54 19
-60 4 -76 -19 -22 -31 -15 -13 7 8 9 8 15 2 15 -25 0 -38 -78 -18 -105 14 -19
15 -19 10 5 -5 21 -4 22 6 8 8 -14 16 -15 36 -8 14 6 45 10 70 10 31 0 44 4
44 14 0 17 47 49 55 37 3 -5 -1 -11 -7 -14 -7 -2 -9 -8 -5 -13 5 -5 13 -1 18
8 5 10 16 15 23 12 8 -3 17 -1 21 5 11 18 23 12 18 -9 -3 -11 0 -20 6 -20 6 0
8 8 4 18 -6 15 -5 16 12 2 16 -13 17 -13 10 0 -5 8 -16 22 -24 32 -15 17 -16
17 -26 -2 -7 -14 -14 -17 -25 -10 -13 8 -13 10 1 10 9 0 20 8 23 17 5 11 10
13 17 6 7 -7 22 -8 39 -3 16 5 31 6 34 2 3 -3 6 0 6 6 0 7 -9 12 -21 12 -11 0
-18 4 -14 10 3 6 15 6 30 0 17 -6 27 -6 31 2 4 7 2 14 -4 16 -7 2 -12 10 -12
18 0 8 3 13 8 12 4 -2 8 1 9 6 0 5 9 13 18 19 15 8 14 11 -11 28 -16 10 -35
17 -42 14 -7 -3 -23 4 -35 15 -12 11 -27 18 -33 16 -7 -3 -15 2 -18 10 -7 17
-37 18 -55 2 -11 -11 -11 -9 -1 10 11 22 10 23 -10 12 -20 -11 -21 -10 -15 12
7 22 6 22 -7 4 -14 -18 -15 -18 -30 2 -8 12 -18 19 -21 15 -4 -3 -7 -2 -7 4 0
5 -7 10 -15 10 -8 0 -12 -4 -9 -9 7 -11 -46 1 -63 14 -7 5 -22 7 -34 3 -16 -5
-19 -4 -14 5 6 10 2 11 -16 7 -13 -3 -31 -2 -39 3 -13 9 -13 10 0 11 8 1 21 1
28 0 6 -1 12 2 12 7 0 12 -97 35 -111 26 -7 -4 -18 1 -25 11 -7 10 -19 15 -27
12 -8 -3 -20 0 -26 6 -8 8 -11 8 -11 -1 0 -7 -7 -12 -15 -12 -9 0 -12 6 -8 16
5 13 2 15 -13 10 -10 -3 -32 1 -49 10 -16 9 -41 17 -55 19 -13 1 -26 8 -28 14
-3 8 -11 6 -25 -6 -18 -16 -20 -16 -14 -1 4 12 1 16 -11 16 -9 0 -39 2 -66 6
-38 5 -47 3 -43 -7 6 -15 -29 -21 -38 -6 -4 5 2 6 12 2 15 -5 16 -4 5 8 -10
11 -16 11 -33 1 -12 -8 -18 -9 -14 -3 3 6 2 11 -3 11 -5 0 -14 -10 -21 -22
-11 -22 -11 -22 -6 -1 5 18 2 21 -18 19 -13 -2 -29 -6 -35 -10 -6 -3 -13 -2
-16 3 -3 4 -118 8 -256 7 -165 -1 -250 3 -252 9 -2 7 -25 5 -65 -6z m-78 -38
c-3 -6 -11 -11 -16 -11 -5 0 -4 6 3 14 14 16 24 13 13 -3z m885 3 c0 -8 -4
-12 -10 -9 -5 3 -10 10 -10 16 0 5 5 9 10 9 6 0 10 -7 10 -16z m-747 -1 c-7
-2 -19 -2 -25 0 -7 3 -2 5 12 5 14 0 19 -2 13 -5z m-238 -13 c-3 -5 -1 -10 4
-10 6 0 11 5 11 10 0 6 7 10 15 10 8 0 15 -4 15 -10 0 -5 -3 -9 -7 -8 -5 0
-25 -6 -45 -15 -21 -10 -59 -17 -85 -16 -36 0 -43 3 -28 9 11 5 34 9 51 9 17
1 37 8 44 16 14 17 35 21 25 5z m579 -22 c4 -19 -15 -39 -21 -21 -2 6 -12 9
-22 6 -10 -3 -22 0 -25 6 -4 6 -2 11 4 11 6 0 9 4 6 9 -3 5 7 8 24 7 19 0 31
-7 34 -18z m-774 -19 c-7 -11 -14 -18 -17 -15 -3 3 0 12 7 21 18 21 23 19 10
-6z m405 -9 c3 -6 -4 -10 -17 -10 -18 0 -20 2 -8 10 19 12 18 12 25 0z m225 0
c0 -5 -9 -10 -20 -10 -11 0 -20 -4 -20 -10 0 -5 -6 -10 -13 -10 -7 0 -28 -17
-47 -37 -20 -23 -35 -33 -37 -25 -6 16 -23 16 -23 -1 0 -23 -41 -60 -53 -48
-7 7 -6 15 3 26 10 12 10 15 -1 15 -8 1 0 9 17 18 17 9 29 23 27 30 -3 6 0 12
7 12 6 0 8 -5 5 -10 -13 -22 28 -23 44 -1 32 42 111 79 111 51z m-310 -20 c0
-5 -10 -10 -22 -10 -19 0 -20 2 -8 10 19 13 30 13 30 0z m-330 -25 c0 -8 -2
-15 -4 -15 -2 0 -6 7 -10 15 -3 8 -1 15 4 15 6 0 10 -7 10 -15z m382 2 c-18
-7 -36 -18 -40 -24 -8 -13 -84 -43 -109 -43 -10 0 -11 4 -3 19 10 19 51 37
107 47 15 3 30 7 32 10 2 2 14 4 25 3 15 0 12 -4 -12 -12z m231 -7 c-3 -11 -9
-17 -14 -14 -5 3 -9 0 -9 -6 0 -6 -5 -8 -12 -4 -8 5 -4 13 11 26 29 23 30 23
24 -2z m484 14 c-3 -3 -12 -4 -19 -1 -8 3 -5 6 6 6 11 1 17 -2 13 -5z m-887
-44 c-10 -19 -30 -28 -30 -14 0 6 30 33 38 34 1 0 -2 -9 -8 -20z m670 10 c-13
-8 -12 -12 8 -25 12 -9 20 -21 17 -26 -4 -5 -2 -9 3 -9 18 0 21 13 7 27 -19
18 -19 34 -1 27 35 -13 23 -74 -13 -71 -11 0 -17 5 -14 10 2 4 -3 19 -12 33
-16 25 -13 44 8 44 7 0 6 -4 -3 -10z m-505 -19 c-3 -6 -11 -11 -17 -11 -6 0
-6 6 2 15 14 17 26 13 15 -4z m-511 -12 c-31 -12 -40 -9 -20 6 10 8 24 11 29
8 6 -4 2 -10 -9 -14z m865 5 c20 -10 29 -20 24 -25 -11 -11 -43 -1 -43 13 0 5
-4 7 -9 4 -4 -3 -17 1 -27 9 -18 14 -18 14 2 15 11 0 35 -7 53 -16z m947 6
c42 -16 23 -21 -21 -5 -22 8 -32 14 -23 15 9 0 29 -5 44 -10z m-1106 -15 c-7
-9 -15 -13 -19 -10 -3 3 1 10 9 15 21 14 24 12 10 -5z m280 -19 c0 -8 -4 -18
-10 -21 -5 -3 -10 3 -10 14 0 12 5 21 10 21 6 0 10 -6 10 -14z m-232 -8 c-2
-6 -15 -15 -28 -20 -23 -9 -23 -8 -5 12 20 22 39 27 33 8z m87 2 c8 -13 -15
-13 -35 0 -12 8 -11 10 7 10 12 0 25 -4 28 -10z m-355 -4 c0 -3 -4 -8 -10 -11
-5 -3 -10 -1 -10 4 0 6 5 11 10 11 6 0 10 -2 10 -4z m63 -42 c-6 -16 -33 -27
-33 -13 0 6 -5 7 -10 4 -6 -4 -8 -11 -5 -16 4 -5 2 -9 -4 -9 -15 0 -21 14 -11
29 4 8 15 11 23 8 10 -4 17 2 21 16 5 18 8 19 15 8 5 -8 7 -20 4 -27z m-123
22 c0 -12 -71 -78 -77 -72 -4 4 0 12 10 17 9 6 17 17 17 24 0 8 7 15 15 15 8
0 15 5 15 10 0 6 5 10 10 10 6 0 10 -2 10 -4z m226 -35 c23 -18 23 -19 3 -24
-12 -3 -18 -3 -15 0 8 9 -23 35 -34 28 -5 -3 -10 -1 -10 4 0 17 30 13 56 -8z
m448 4 c-5 -12 -10 -13 -20 -4 -19 15 -18 19 6 19 13 0 18 -5 14 -15z m-824 0
c0 -7 -30 -13 -34 -7 -3 4 4 9 15 9 10 1 19 0 19 -2z m470 -4 c0 -5 -9 -13
-20 -16 -11 -3 -20 -11 -20 -16 0 -5 -7 -9 -15 -9 -8 0 -20 -10 -26 -22 -8
-14 -14 -18 -17 -10 -6 19 -20 14 -27 -9 -4 -11 -9 -18 -12 -15 -8 7 -33 -13
-33 -26 0 -6 7 -5 15 2 19 16 65 22 65 8 0 -5 -5 -8 -12 -6 -7 3 -22 -5 -35
-16 -38 -33 -48 -28 -49 24 0 34 3 47 12 43 6 -2 16 9 22 26 6 17 16 31 23 31
6 0 9 -6 6 -13 -3 -7 3 -18 12 -24 13 -8 23 -5 45 18 16 16 33 26 37 23 5 -3
9 0 9 5 0 6 5 11 10 11 6 0 10 -4 10 -9z m89 -26 c2 -14 -2 -17 -18 -12 -12 3
-21 0 -21 -6 0 -7 -4 -7 -12 2 -11 10 -9 15 7 27 23 17 39 14 44 -11z m191 17
c0 -9 -21 -32 -30 -32 -3 0 -6 9 -7 20 -1 14 4 20 18 20 10 0 19 -4 19 -8z
m1106 -17 c9 -8 13 -15 9 -15 -3 0 -3 -5 1 -11 4 -8 9 -7 15 2 6 9 9 10 9 2 0
-6 3 -20 7 -30 6 -15 4 -16 -9 -5 -8 7 -23 10 -32 6 -12 -5 -15 -2 -9 12 4 11
3 15 -4 11 -6 -4 -10 3 -10 18 0 29 3 30 23 10z m-1672 -10 c13 -14 13 -45 -1
-45 -3 0 -3 7 1 15 3 8 -4 21 -17 30 -12 8 -16 15 -10 15 6 0 18 -7 27 -15z
m82 -32 c-11 -11 -19 6 -11 24 8 17 8 17 12 0 3 -10 2 -21 -1 -24z m376 12 c3
-14 1 -25 -3 -25 -5 0 -9 4 -9 10 0 5 -6 7 -14 4 -12 -5 -15 7 -7 34 1 1 7 2
15 2 7 0 16 -11 18 -25z m155 9 c4 -14 -26 -49 -34 -39 -5 4 -2 10 5 12 6 3
12 9 12 14 0 6 -4 7 -10 4 -6 -3 -7 1 -4 10 7 16 26 16 31 -1z m-900 -13 c-1
-11 -6 -17 -14 -14 -10 4 -11 9 -2 19 15 19 18 18 16 -5z m263 10 c0 -5 -7
-14 -15 -21 -16 -14 -18 -10 -9 14 6 17 24 22 24 7z m314 -36 c-2 -28 1 -35
14 -35 14 0 15 -2 2 -10 -10 -6 -17 -5 -23 5 -10 19 -31 19 -47 0 -10 -12 -8
-13 10 -10 13 2 32 -3 44 -11 20 -15 20 -16 -16 -12 -40 4 -42 1 -40 -50 1
-14 -4 -22 -11 -19 -7 2 -11 13 -9 23 2 10 5 35 6 54 2 37 21 77 46 96 21 18
28 9 24 -31z m359 25 c-3 -11 -7 -20 -9 -20 -2 0 -4 9 -4 20 0 11 4 20 9 20 5
0 7 -9 4 -20z m-723 0 c0 -5 -4 -10 -10 -10 -5 0 -10 5 -10 10 0 6 5 10 10 10
6 0 10 -4 10 -10z m445 -9 c-3 -6 -10 -9 -15 -6 -5 3 -11 1 -15 -5 -9 -14 -28
-13 -23 2 3 7 15 15 29 19 28 7 34 4 24 -10z m-1030 -1 c-3 -5 -12 -10 -18
-10 -7 0 -6 4 3 10 19 12 23 12 15 0z m725 -32 c0 -4 0 -11 0 -15 0 -5 -12 -9
-26 -10 -15 -1 -32 -7 -38 -13 -16 -16 -30 -12 -16 5 10 12 9 15 -4 15 -14 0
-15 4 -6 20 6 11 15 18 20 15 5 -3 11 -1 15 4 7 12 55 -7 55 -21z m456 -3 c-9
-14 -23 -25 -31 -25 -8 0 -15 -4 -15 -9 0 -10 -60 -34 -67 -27 -3 2 21 21 51
41 31 20 59 41 62 47 3 5 8 7 11 4 3 -3 -2 -17 -11 -31z m142 -8 c-6 -17 -17
-39 -26 -47 -17 -17 -17 -19 8 52 17 45 33 41 18 -5z m729 11 c-3 -7 -5 -2 -5
12 0 14 2 19 5 13 2 -7 2 -19 0 -25z m-1490 0 c-3 -8 -6 -5 -6 6 -1 11 2 17 5
13 3 -3 4 -12 1 -19z m533 12 c0 -5 -7 -10 -16 -10 -8 0 -12 5 -9 10 3 6 10
10 16 10 5 0 9 -4 9 -10z m-1085 -10 c-3 -5 -11 -10 -16 -10 -6 0 -7 5 -4 10
3 6 11 10 16 10 6 0 7 -4 4 -10z m-220 -28 c-3 -3 -11 0 -18 7 -9 10 -8 11 6
5 10 -3 15 -9 12 -12z m125 8 c0 -5 -5 -10 -11 -10 -5 0 -7 5 -4 10 3 6 8 10
11 10 2 0 4 -4 4 -10z m650 -10 c0 -5 -4 -10 -10 -10 -5 0 -10 5 -10 10 0 6 5
10 10 10 6 0 10 -4 10 -10z m280 -30 c-10 -18 -9 -24 1 -31 8 -5 10 -9 4 -9
-5 0 -16 4 -24 9 -10 6 -21 1 -37 -18 -13 -14 -24 -21 -24 -15 0 6 9 19 21 30
11 10 30 29 42 41 26 26 33 23 17 -7z m-126 -12 c-1 -18 -4 -34 -5 -35 -2 -4
-6 -20 -8 -34 0 -6 -8 -3 -17 5 -8 9 -13 19 -10 24 2 4 -7 8 -22 8 -21 -1 -28
4 -30 22 -3 17 2 22 17 22 13 0 21 -6 21 -16 0 -22 23 -12 35 14 14 32 23 27
19 -10z m-320 7 c3 -8 1 -15 -4 -15 -6 0 -10 7 -10 15 0 8 2 15 4 15 2 0 6 -7
10 -15z m206 -21 c0 -8 -4 -12 -10 -9 -5 3 -10 10 -10 16 0 5 5 9 10 9 6 0 10
-7 10 -16z m-55 -12 c-3 -3 -11 0 -18 7 -9 10 -8 11 6 5 10 -3 15 -9 12 -12z
m1606 -5 c-10 -9 -11 -8 -5 6 3 10 9 15 12 12 3 -3 0 -11 -7 -18z m-91 -11 c0
-3 -4 -8 -10 -11 -5 -3 -10 -1 -10 4 0 6 5 11 10 11 6 0 10 -2 10 -4z m-1980
-56 c-15 -9 -40 -2 -40 11 0 5 -6 9 -14 9 -8 0 -18 6 -22 13 -4 6 -4 9 0 6 4
-4 19 -4 34 0 21 6 30 3 41 -12 11 -16 11 -21 1 -27z m70 29 c0 -6 7 -9 14 -6
10 4 13 1 9 -9 -3 -7 -12 -14 -21 -14 -8 0 -12 3 -9 7 4 3 2 12 -4 20 -9 9 -8
13 0 13 6 0 11 -5 11 -11z m485 -9 c18 -20 18 -21 1 -14 -14 5 -17 3 -14 -7 2
-8 14 -15 26 -17 29 -4 28 -17 -1 -18 -26 -2 -59 37 -38 44 9 3 9 7 0 18 -18
22 6 16 26 -6z m220 -10 c-10 -11 -20 -18 -23 -15 -7 6 18 35 31 35 5 0 2 -9
-8 -20z m-727 -15 c0 -28 0 -27 -22 -19 -12 5 -13 10 -5 25 14 27 27 24 27 -6z
m659 -35 c0 -25 -3 -27 -19 -17 -10 7 -18 23 -18 39 0 25 2 27 18 17 11 -7 19
-23 19 -39z m-541 11 c-4 -5 0 -12 6 -14 7 -3 -2 -6 -19 -6 -18 -1 -33 4 -33
10 0 6 7 9 15 6 8 -4 17 -2 20 3 4 6 8 10 11 10 3 0 3 -4 0 -9z m908 -6 c-4
-8 -8 -15 -10 -15 -2 0 -4 7 -4 15 0 8 4 15 10 15 5 0 7 -7 4 -15z m-724 -46
c0 -16 -17 -10 -24 9 -3 9 -9 24 -12 32 -3 8 4 4 15 -9 12 -13 21 -27 21 -32z
m348 1 c17 0 15 -13 -5 -49 -22 -38 -31 -39 -35 -3 -2 16 -8 26 -16 24 -10 -2
-10 2 -2 17 5 11 7 28 3 38 -5 15 -2 14 19 -4 13 -13 30 -23 36 -23z m-111
-27 c-9 -8 -48 8 -42 18 4 5 14 5 26 -2 12 -6 18 -13 16 -16z m-174 -3 c14
-17 15 -25 6 -42 -9 -16 -13 -18 -20 -7 -5 9 -3 16 9 21 15 6 14 9 -3 8 -7 -1
-35 27 -35 34 0 14 27 4 43 -14z m741 -35 c6 -31 -10 -69 -25 -59 -7 4 -7 10
0 18 6 6 8 32 6 56 -5 48 10 37 19 -15z m-624 -19 c0 -8 -5 -18 -12 -22 -8 -5
-6 -10 8 -15 15 -6 15 -8 3 -8 -9 -1 -22 -8 -29 -16 -7 -8 -16 -15 -20 -15
-11 0 -2 61 11 76 15 18 39 18 39 0z m62 -51 c-5 -44 -32 -49 -32 -6 0 20 6
31 18 34 9 3 17 5 17 6 1 0 -1 -15 -3 -34z m-148 -7 c3 -16 2 -28 -3 -28 -13
0 -24 37 -16 51 9 13 11 11 19 -23z m247 13 c-7 -5 -13 -12 -13 -17 0 -5 -4
-16 -9 -24 -7 -12 -8 -10 -6 7 3 24 27 56 36 48 3 -3 0 -10 -8 -14z m-391 -50
c0 -11 3 -28 6 -38 5 -12 4 -15 -3 -8 -15 15 -25 65 -13 65 5 0 10 -9 10 -19z
m224 0 c3 -5 -2 -8 -12 -7 -11 1 -18 -7 -20 -25 -3 -24 -6 -26 -35 -20 -23 5
-33 13 -35 29 -4 25 16 30 25 6 3 -9 9 -12 12 -6 7 10 42 31 53 32 4 0 9 -4
12 -9z m273 -43 c-3 -8 -6 -5 -6 6 -1 11 2 17 5 13 3 -3 4 -12 1 -19z m-241
-55 c-10 -10 -19 5 -10 18 6 11 8 11 12 0 2 -7 1 -15 -2 -18z m-156 7 c0 -5
-7 -7 -15 -4 -8 4 -15 8 -15 10 0 2 7 4 15 4 8 0 15 -4 15 -10z m220 -14 c0
-3 -4 -8 -10 -11 -5 -3 -10 -1 -10 4 0 6 5 11 10 11 6 0 10 -2 10 -4z m-250
-51 c14 -19 14 -19 -2 -6 -10 7 -18 18 -18 24 0 6 1 8 3 6 1 -2 9 -13 17 -24z
m320 -15 c0 -5 -4 -10 -10 -10 -5 0 -10 5 -10 10 0 6 5 10 10 10 6 0 10 -4 10
-10z m-210 -40 c0 -5 -4 -10 -10 -10 -5 0 -10 5 -10 10 0 6 5 10 10 10 6 0 10
-4 10 -10z m60 -80 c0 -5 -2 -10 -4 -10 -3 0 -8 5 -11 10 -3 6 -1 10 4 10 6 0
11 -4 11 -10z m-10 -40 c0 -5 -2 -10 -4 -10 -3 0 -8 5 -11 10 -3 6 -1 10 4 10
6 0 11 -4 11 -10z m-150 -259 c-10 -20 -30 -37 -30 -26 0 11 25 45 33 45 4 0
3 -9 -3 -19z m-170 -361 c0 -5 -5 -10 -11 -10 -5 0 -7 5 -4 10 3 6 8 10 11 10
2 0 4 -4 4 -10z"/>
<path d="M1286 2415 c4 -8 10 -12 15 -9 14 8 10 24 -6 24 -9 0 -12 -6 -9 -15z"/>
<path d="M2385 3020 c3 -5 8 -10 11 -10 2 0 4 5 4 10 0 6 -5 10 -11 10 -5 0
-7 -4 -4 -10z"/>
<path d="M707 3006 c-3 -8 1 -22 8 -33 13 -17 14 -16 11 10 -3 33 -12 43 -19
23z"/>
<path d="M2426 3004 c-9 -8 -16 -20 -16 -26 0 -6 1 -9 3 -7 1 2 11 14 21 27
22 25 16 30 -8 6z"/>
<path d="M449 2958 c0 -7 -2 -21 -4 -30 -2 -11 2 -15 11 -11 8 3 14 13 14 23
0 21 -20 38 -21 18z"/>
<path d="M590 2953 c-8 -3 -38 -16 -66 -29 -28 -13 -55 -24 -60 -24 -5 0 -26
-11 -47 -25 -20 -14 -37 -24 -37 -21 0 3 -12 -1 -27 -9 -15 -8 -31 -11 -36 -8
-6 3 -7 2 -4 -4 3 -5 -7 -17 -23 -27 -28 -16 -30 -16 -25 1 4 11 1 9 -6 -4
-15 -29 -4 -74 16 -67 8 4 15 14 15 23 0 14 -2 14 -10 1 -6 -9 -10 -10 -10 -3
0 17 23 29 28 15 2 -7 8 -12 14 -12 6 0 8 6 5 14 -7 17 12 36 36 36 10 0 16 4
12 9 -3 5 4 13 16 16 12 4 37 18 56 31 20 13 42 24 50 24 8 0 21 7 30 15 8 9
28 19 44 22 16 3 34 12 40 19 12 15 12 15 -11 7z"/>
<path d="M1583 2929 c11 -7 23 -7 28 -2 5 5 -3 9 -19 11 -24 1 -25 0 -9 -9z"/>
<path d="M2555 2930 c3 -5 8 -10 11 -10 2 0 4 5 4 10 0 6 -5 10 -11 10 -5 0
-7 -4 -4 -10z"/>
<path d="M2680 2916 c0 -2 9 -6 20 -9 11 -3 20 -1 20 4 0 5 -9 9 -20 9 -11 0
-20 -2 -20 -4z"/>
<path d="M1630 2895 c7 -8 16 -12 21 -9 5 3 9 -1 9 -9 0 -8 7 -21 17 -28 9 -8
14 -9 12 -4 -22 49 -35 65 -52 65 -16 0 -17 -3 -7 -15z"/>
<path d="M490 2850 c6 -11 12 -20 14 -20 2 0 2 9 -1 20 -3 11 -9 20 -15 20 -5
0 -4 -9 2 -20z"/>
<path d="M430 2826 c0 -2 6 -9 14 -15 10 -9 15 -8 20 4 4 10 -1 15 -14 15 -11
0 -20 -2 -20 -4z"/>
<path d="M326 2791 c-4 -5 3 -7 14 -4 23 6 26 13 6 13 -8 0 -17 -4 -20 -9z"/>
<path d="M444 2773 c-17 -17 -16 -18 11 -21 19 -3 34 3 49 19 l21 22 -27 -16
c-26 -16 -32 -15 -29 6 2 11 -6 8 -25 -10z"/>
<path d="M3025 2740 c3 -5 11 -10 16 -10 6 0 7 5 4 10 -3 6 -11 10 -16 10 -6
0 -7 -4 -4 -10z"/>
<path d="M2238 2708 c-37 -11 -69 -27 -72 -34 -4 -10 1 -11 19 -4 16 6 35 6
51 0 14 -6 50 -8 80 -6 30 3 54 1 54 -4 0 -4 2 -15 6 -23 4 -11 -4 -14 -34
-14 -40 0 -192 -68 -192 -86 0 -9 28 -5 64 9 9 3 16 1 16 -5 0 -6 7 -11 16
-11 13 0 14 3 5 13 -8 11 -5 16 15 25 34 16 67 16 58 0 -5 -9 -2 -9 9 1 15 12
17 11 17 -3 0 -9 -4 -16 -10 -16 -5 0 -10 -7 -10 -16 0 -14 2 -15 17 -3 11 10
14 10 9 2 -4 -7 -5 -13 -2 -13 3 0 12 13 21 30 11 21 20 27 32 23 13 -5 15 -2
10 11 -4 10 -1 19 7 22 8 3 11 15 9 29 -4 16 1 26 15 34 11 6 22 7 26 4 3 -3
6 -2 6 4 0 6 -29 14 -64 18 -35 3 -72 13 -83 20 -21 17 -12 18 -95 -7z"/>
<path d="M259 2706 c9 -11 9 -15 -1 -18 -8 -3 -8 -6 3 -10 10 -4 15 1 16 12 1
10 -5 21 -14 24 -13 5 -14 4 -4 -8z"/>
<path d="M371 2684 c0 -11 3 -14 6 -6 3 7 2 16 -1 19 -3 4 -6 -2 -5 -13z"/>
<path d="M2960 2689 c0 -5 8 -13 18 -16 9 -4 20 -11 24 -17 5 -7 8 -7 8 2 0 6
7 12 16 12 8 0 12 5 9 11 -4 5 -12 8 -18 6 -7 -2 -22 0 -34 4 -14 5 -23 5 -23
-2z"/>
<path d="M3080 2676 c0 -2 7 -7 16 -10 8 -3 12 -2 9 4 -6 10 -25 14 -25 6z"/>
<path d="M2915 2580 c3 -5 8 -10 11 -10 2 0 4 5 4 10 0 6 -5 10 -11 10 -5 0
-7 -4 -4 -10z"/>
<path d="M1495 2525 c-22 -8 -32 -14 -23 -14 15 -1 16 -5 7 -28 -16 -44 -27
-113 -18 -113 5 0 9 8 9 18 0 15 2 15 10 2 8 -11 9 -8 5 11 -8 35 12 109 30
109 7 0 20 3 29 6 24 9 22 -66 -3 -97 -23 -30 -43 -97 -30 -105 13 -7 29 4 29
22 0 8 5 14 10 14 6 0 10 -7 10 -16 0 -17 27 -43 45 -43 6 -1 -1 8 -14 18 -23
18 -23 18 -5 52 27 49 25 90 -5 134 -31 45 -34 47 -86 30z"/>
<path d="M2592 2480 c14 -19 44 -72 67 -118 40 -82 81 -145 81 -124 0 6 -5 14
-10 17 -6 4 -35 55 -64 113 -30 59 -64 116 -77 127 -21 18 -21 17 3 -15z"/>
<path d="M932 2358 c-14 -14 -16 -28 -2 -28 5 0 14 9 20 20 12 22 1 27 -18 8z"/>
<path d="M1570 2260 c0 -11 7 -20 15 -20 8 0 15 9 15 20 0 11 -7 20 -15 20 -8
0 -15 -9 -15 -20z"/>
<path d="M1800 2220 c-9 -6 -10 -10 -3 -10 6 0 15 5 18 10 8 12 4 12 -15 0z"/>
<path d="M2727 2182 l-17 -37 20 24 c11 13 20 29 20 37 0 21 -3 17 -23 -24z"/>
<path d="M1635 2156 c-22 -12 -40 -26 -40 -31 0 -6 -4 -15 -8 -22 -5 -7 5 -25
23 -45 21 -23 28 -27 23 -13 -4 11 -13 26 -21 34 -13 13 -9 20 29 52 52 44 50
54 -6 25z"/>
<path d="M2561 2150 c-21 -10 -30 -20 -23 -24 7 -4 20 -3 29 2 10 5 32 12 48
16 24 6 28 5 18 -5 -7 -7 -13 -22 -12 -33 0 -20 1 -20 9 2 6 14 21 25 40 29
36 7 33 13 -7 19 -15 3 -37 6 -48 8 -12 2 -36 -4 -54 -14z"/>
<path d="M1524 2152 c3 -6 2 -13 -4 -17 -5 -3 -10 -1 -10 6 0 7 -3 10 -6 6 -3
-3 -2 -13 4 -22 8 -16 9 -16 16 0 6 17 7 17 21 -1 14 -18 15 -18 7 5 -5 14
-15 27 -22 29 -7 3 -10 0 -6 -6z"/>
<path d="M1694 2139 c-3 -6 -1 -16 5 -22 8 -8 11 -8 11 1 0 7 4 12 10 12 14 0
29 -63 18 -77 -6 -7 -3 -15 9 -22 16 -9 15 -10 -7 -7 -17 2 -26 10 -28 26 l-4
24 -19 -25 c-10 -13 -19 -19 -19 -12 0 6 5 15 10 18 6 3 10 11 10 16 0 6 -6 7
-12 3 -9 -5 -8 -2 1 9 12 15 11 17 -10 14 -12 -2 -25 -10 -27 -17 -3 -7 0 -10
7 -6 6 4 11 2 11 -3 0 -6 -3 -11 -8 -11 -4 0 -6 -18 -4 -40 3 -32 10 -43 38
-59 19 -11 34 -26 34 -32 0 -7 -3 -9 -7 -6 -9 9 -34 -13 -27 -24 3 -5 1 -9 -4
-9 -6 0 -8 -8 -5 -19 3 -10 0 -21 -5 -25 -5 -3 -13 5 -16 19 -8 32 -22 32 -28
0 -3 -14 -2 -25 1 -25 4 0 7 -12 6 -27 0 -16 7 -43 17 -60 18 -33 13 -43 -11
-20 -10 10 -11 -1 -8 -55 7 -107 57 -157 127 -127 16 8 30 17 30 20 0 9 58 1
78 -11 15 -8 14 -9 -5 -10 -13 0 -23 -4 -23 -10 0 -5 10 -10 23 -10 20 0 20
-1 -6 -15 -29 -15 -67 -6 -67 15 0 14 14 12 28 -2 9 -9 12 -8 12 5 0 9 -2 17
-4 17 -2 0 -11 3 -19 6 -22 8 -30 -26 -11 -47 21 -23 45 -24 85 -3 17 8 37 13
45 10 8 -3 14 1 14 9 0 16 35 21 44 6 3 -4 1 -23 -4 -42 -7 -22 -6 -35 0 -39
6 -4 8 -13 5 -21 -3 -10 5 -18 24 -26 19 -7 31 -7 33 -1 2 6 14 5 31 -1 19 -7
27 -7 27 0 0 6 10 9 23 7 17 -2 21 -9 19 -27 -1 -14 -9 -32 -16 -40 -22 -26
-26 -73 -8 -89 10 -7 11 -11 4 -7 -6 3 -15 -1 -18 -10 -7 -18 19 -51 58 -71
33 -17 83 -99 80 -131 -1 -13 2 -22 6 -19 5 3 8 -11 8 -29 -1 -19 -5 -35 -10
-35 -5 0 1 -11 14 -25 l23 -25 -33 -14 c-28 -11 -31 -15 -14 -19 18 -4 18 -5
0 -6 -12 -1 -16 -6 -12 -17 3 -8 2 -13 -3 -9 -5 3 -21 -9 -35 -25 -22 -26 -24
-34 -14 -55 12 -27 34 -35 24 -10 -3 9 0 15 9 15 7 0 28 20 46 45 17 24 36 42
42 38 6 -4 7 -1 3 6 -5 7 0 19 10 27 11 9 13 13 7 9 -9 -4 -13 1 -13 15 0 11
-7 23 -15 26 -11 5 -13 10 -5 19 5 6 6 15 2 19 -4 5 2 6 13 4 13 -2 20 3 20
13 0 9 7 25 15 35 9 10 10 15 3 10 -8 -4 -13 -1 -13 8 0 9 6 16 14 16 7 0 20
8 27 17 13 16 12 17 -3 5 -10 -8 -19 -9 -22 -3 -4 5 -2 13 4 16 8 5 7 12 -2
23 -11 13 -10 15 9 10 16 -4 20 -2 16 8 -3 8 -10 11 -16 7 -7 -4 -8 0 -3 12 3
10 0 27 -8 40 -15 22 -10 39 12 41 36 3 42 5 42 13 0 5 -11 8 -24 5 -19 -3
-26 2 -34 25 -6 16 -7 33 -4 37 4 4 2 4 -5 0 -9 -5 -9 -14 -2 -33 10 -28 7
-39 -10 -29 -6 4 -8 13 -4 21 3 8 1 15 -3 15 -13 0 -36 -16 -35 -24 1 -3 -8
-15 -19 -26 -15 -15 -20 -16 -20 -6 0 8 6 16 13 18 7 3 12 23 12 52 0 47 0 47
-15 25 -26 -41 -59 -74 -60 -61 0 6 4 12 9 12 16 0 5 67 -14 87 -18 17 -18 18
0 22 17 3 16 5 -6 21 -13 10 -20 22 -16 26 4 4 20 -4 35 -19 14 -15 21 -27 14
-27 -6 0 -12 -7 -12 -16 0 -8 5 -12 10 -9 6 4 10 3 9 -2 -4 -21 3 -21 23 -1
l21 21 18 -21 c21 -27 29 -28 29 -2 0 11 5 20 10 20 6 0 10 -4 10 -10 0 -5 4
-10 10 -10 5 0 7 6 4 14 -7 19 38 30 51 12 7 -9 17 -11 34 -4 16 5 28 5 35 -2
5 -5 24 -10 41 -10 40 0 71 32 80 83 4 20 12 37 17 37 13 0 -13 24 -34 32 -9
4 -22 1 -28 -7 -10 -12 -17 -12 -34 -3 -19 10 -20 10 -7 -5 18 -22 51 -22 51
0 0 12 3 14 11 6 23 -23 -2 -35 -58 -29 -63 6 -76 13 -69 32 10 25 -20 4 -39
-28 -12 -22 -20 -27 -23 -18 -11 42 -12 43 -27 30 -18 -15 -20 -14 -30 20 -7
23 -7 24 10 10 16 -13 18 -13 13 0 -5 17 -83 25 -93 10 -4 -6 -1 -9 7 -8 7 2
14 -7 16 -19 2 -13 -2 -23 -8 -23 -6 0 -8 5 -4 11 5 8 1 8 -14 0 -18 -9 -19
-8 -17 19 1 16 7 36 14 43 9 12 7 16 -9 20 -22 6 -74 -29 -64 -44 3 -6 -5 -7
-20 -3 -22 5 -25 4 -19 -12 5 -13 3 -15 -8 -9 -12 7 -12 6 -1 -7 10 -13 10
-18 1 -24 -9 -5 -7 -11 6 -21 11 -7 17 -13 14 -14 -55 -10 -62 -10 -51 4 7 8
9 17 5 20 -3 4 -1 7 5 7 7 0 12 5 12 11 0 7 -10 9 -27 4 -62 -17 -79 -15 -79
6 0 16 5 20 24 16 18 -3 26 0 29 14 4 15 8 16 24 6 10 -6 20 -9 23 -6 6 5 14
43 15 67 1 7 5 11 11 7 5 -3 6 -13 3 -22 -4 -11 -2 -14 8 -11 8 3 13 12 13 21
-1 9 1 16 5 15 20 -2 30 4 25 17 -5 11 -10 12 -25 2 -15 -9 -21 -8 -33 8 -15
20 -15 20 -16 -2 0 -13 -6 -23 -14 -23 -8 0 -18 -5 -22 -12 -5 -8 -2 -9 9 -5
10 3 17 2 17 -3 0 -6 -5 -10 -10 -10 -7 0 -7 -7 0 -22 11 -22 11 -22 -8 1 -13
16 -21 20 -26 12 -10 -15 -29 -14 -23 2 2 6 10 11 17 9 7 -2 10 3 7 12 -3 8
-1 17 6 20 9 3 9 5 0 5 -7 1 -13 9 -13 19 -1 16 -1 16 -14 -1 -13 -16 -14 -17
-20 0 -4 10 -1 20 9 25 8 5 15 14 15 19 0 6 -5 7 -11 3 -8 -4 -9 1 -4 16 4 12
3 25 -2 29 -5 3 -16 19 -26 34 -18 28 -43 28 -33 0 4 -10 2 -13 -7 -10 -10 4
-13 -2 -11 -19 2 -25 -10 -32 -22 -12 -14 23 -13 57 1 52 8 -4 15 3 17 18 2
18 -5 27 -37 44 -22 12 -41 30 -42 40 -3 17 -2 17 6 -1 9 -19 10 -19 10 3 1
12 -5 25 -12 28 -7 2 -13 14 -14 26 -1 11 -11 30 -21 42 -11 11 -17 27 -15 34
6 15 -9 16 -25 0 -6 -6 -15 -8 -19 -4 -4 4 -2 11 6 15 7 4 16 24 20 43 7 28 4
39 -13 60 -23 28 -71 44 -82 27z m51 -139 c3 -5 1 -10 -4 -10 -6 0 -11 5 -11
10 0 6 2 10 4 10 3 0 8 -4 11 -10z m30 -40 c3 -5 14 -10 25 -10 18 0 30 -19
30 -47 0 -13 -3 -13 -25 1 -23 15 -25 15 -25 1 0 -9 4 -14 9 -11 5 3 14 -1 21
-9 11 -13 8 -15 -14 -15 -16 0 -25 -4 -21 -10 4 -6 15 -8 26 -5 21 7 24 -2 9
-25 -8 -13 -15 -10 -41 18 -32 34 -56 38 -51 8 2 -9 -2 -16 -7 -16 -6 0 -10
11 -9 25 1 13 4 22 7 19 2 -2 10 13 17 33 10 29 10 39 1 45 -7 5 -1 8 15 8 15
0 30 -4 33 -10z m-29 -137 c-11 -11 -17 4 -9 23 7 18 8 18 11 1 2 -10 1 -21
-2 -24z m148 -27 c-4 -11 -11 -32 -17 -46 -6 -14 -9 -33 -8 -42 1 -10 -3 -18
-8 -18 -11 0 -16 24 -11 45 1 6 4 21 5 33 2 13 6 26 9 29 3 4 1 12 -4 18 -8 9
-4 11 15 7 21 -4 24 -8 19 -26z m-73 -10 c-7 -8 -10 -20 -6 -25 3 -6 1 -19 -4
-28 -6 -10 -11 -14 -11 -10 0 5 -5 5 -10 2 -8 -5 -7 -11 1 -21 20 -24 -2 -15
-32 13 -36 34 -36 43 -4 43 14 0 34 11 47 25 22 26 40 27 19 1z m99 4 c0 -5
-4 -10 -10 -10 -5 0 -10 5 -10 10 0 6 5 10 10 10 6 0 10 -4 10 -10z m-50 -132
c0 -13 -24 -22 -28 -10 -2 7 -7 10 -12 7 -4 -3 -7 6 -6 19 1 22 2 22 23 7 12
-9 23 -19 23 -23z m80 17 c-7 -9 -15 -13 -17 -11 -7 7 7 26 19 26 6 0 6 -6 -2
-15z m-241 -28 c0 -9 -2 -9 -6 1 -2 6 -11 12 -19 12 -8 0 -14 5 -14 10 0 7 6
7 20 0 11 -6 20 -16 19 -23z m231 -6 c0 -6 -4 -13 -10 -16 -5 -3 -10 1 -10 9
0 9 5 16 10 16 6 0 10 -4 10 -9z m-243 -15 c4 -7 23 -21 41 -30 29 -15 31 -19
18 -31 -20 -20 -40 -19 -67 6 -23 19 -23 20 -2 10 27 -14 53 -14 53 -1 0 6 -6
10 -14 10 -8 0 -28 11 -43 25 -22 19 -24 24 -11 25 9 0 21 -6 25 -14z m139 4
c9 0 12 -4 9 -10 -9 -14 -18 -13 -41 6 -17 14 -17 15 -1 10 10 -3 25 -6 33 -6z
m40 -26 c-20 -14 -20 -14 0 -15 11 0 14 -3 6 -6 -7 -3 -20 -2 -28 1 -13 5 -14
9 -4 21 7 8 16 12 21 9 5 -3 9 0 9 7 0 7 3 9 7 5 5 -4 -1 -14 -11 -22z m314
-64 c0 -11 -4 -20 -9 -20 -5 0 -7 9 -4 20 3 11 7 20 9 20 2 0 4 -9 4 -20z
m287 -102 c-3 -8 -6 -5 -6 6 -1 11 2 17 5 13 3 -3 4 -12 1 -19z m-242 -38 c3
-5 1 -10 -4 -10 -6 0 -11 5 -11 10 0 6 2 10 4 10 3 0 8 -4 11 -10z m10 -110
c3 -5 1 -10 -4 -10 -6 0 -11 5 -11 10 0 6 2 10 4 10 3 0 8 -4 11 -10z m55
-118 c-6 -2 -7 -8 -4 -13 3 -6 0 -17 -7 -25 -11 -13 -14 -12 -24 13 -10 23
-10 31 3 46 10 11 11 17 4 17 -7 0 -12 -4 -12 -10 0 -5 -5 -10 -12 -10 -6 0
-3 9 7 20 18 20 18 20 37 -7 10 -16 13 -29 8 -31z"/>
<path d="M1530 2101 c0 -5 7 -14 15 -21 12 -10 15 -10 15 3 0 8 -7 17 -15 21
-8 3 -15 2 -15 -3z"/>
<path d="M1570 2061 c0 -5 7 -12 16 -15 14 -5 15 -4 4 9 -14 17 -20 19 -20 6z"/>
<path d="M2621 2038 c13 -46 12 -50 -13 -43 -18 6 -20 5 -11 -5 16 -17 5 -40
-15 -33 -13 4 -12 1 3 -10 14 -11 21 -12 24 -4 2 7 10 20 18 29 16 18 11 82
-7 93 -5 3 -5 -9 1 -27z"/>
<path d="M1610 2006 c0 -25 28 -56 51 -55 8 0 4 5 -9 12 -17 8 -22 17 -19 33
2 14 -2 25 -9 28 -9 4 -14 -2 -14 -18z"/>
<path d="M2506 1950 c-21 -10 -57 -21 -79 -23 -23 -2 -43 -9 -45 -16 -3 -9 6
-11 34 -6 63 11 134 38 134 52 0 16 1 17 -44 -7z"/>
<path d="M2564 1882 c3 -3 1 -11 -5 -19 -8 -9 -8 -13 -1 -13 6 0 12 -8 14 -17
3 -14 8 -9 21 16 9 19 17 35 17 35 0 1 -12 2 -26 2 -14 1 -23 -1 -20 -4z"/>
<path d="M1991 1795 c0 -24 26 -61 36 -51 4 4 2 10 -4 14 -7 4 -16 19 -22 32
-8 21 -10 22 -10 5z"/>
<path d="M2565 1770 c3 -5 8 -10 11 -10 2 0 4 5 4 10 0 6 -5 10 -11 10 -5 0
-7 -4 -4 -10z"/>
<path d="M2580 1743 c0 -4 5 -15 10 -23 8 -13 10 -13 10 2 0 9 -4 20 -10 23
-5 3 -10 3 -10 -2z"/>
<path d="M2582 1598 c-19 -35 -26 -56 -17 -48 20 16 57 88 53 100 -2 5 -18
-19 -36 -52z"/>
<path d="M2340 1524 c0 -8 32 -33 43 -34 5 0 5 4 2 10 -8 13 -45 33 -45 24z"/>
<path d="M2600 1515 c0 -8 4 -15 10 -15 5 0 7 7 4 15 -4 8 -8 15 -10 15 -2 0
-4 -7 -4 -15z"/>
<path d="M1947 1508 c-2 -7 -1 -22 4 -33 6 -16 8 -14 8 13 1 33 -4 41 -12 20z"/>
<path d="M2445 1509 c-11 -17 1 -21 15 -4 8 9 8 15 2 15 -6 0 -14 -5 -17 -11z"/>
<path d="M1190 1390 c-9 -6 -10 -10 -3 -10 6 0 15 5 18 10 8 12 4 12 -15 0z"/>
<path d="M2350 1335 c-7 -9 -8 -15 -2 -15 5 0 12 7 16 15 3 8 4 15 2 15 -2 0
-9 -7 -16 -15z"/>
<path d="M1604 1305 c-7 -18 4 -37 17 -30 5 4 12 -1 15 -10 4 -9 13 -14 21
-11 16 7 73 -20 73 -34 0 -5 6 -7 13 -5 17 6 60 -32 51 -46 -4 -8 -3 -9 4 -5
12 7 112 -43 112 -56 0 -3 8 -4 18 -2 25 7 92 -41 126 -89 26 -38 27 -40 5
-22 -13 11 -28 26 -32 33 -4 6 -14 12 -21 12 -8 0 -16 7 -20 15 -3 8 -12 15
-21 15 -8 0 -15 5 -15 10 0 6 -6 10 -12 10 -14 0 65 -77 107 -104 36 -24 64
-47 92 -75 20 -20 23 -21 29 -7 8 20 -13 47 -30 40 -8 -3 -16 2 -20 11 -3 9
-2 13 4 10 6 -3 10 -3 10 1 0 8 -58 74 -65 74 -3 0 -4 1 -3 3 7 8 -38 44 -50
39 -10 -3 -13 -1 -8 6 4 7 2 12 -4 12 -7 0 -24 9 -40 20 -15 11 -30 17 -34 13
-3 -3 -6 -2 -6 3 0 6 6 16 13 23 10 10 9 11 -4 6 -10 -4 -20 -2 -24 4 -3 6
-14 11 -23 10 -13 0 -12 -3 6 -11 12 -6 22 -15 22 -20 0 -10 -36 7 -45 22 -4
6 -11 8 -16 5 -5 -4 -9 -2 -9 4 0 5 7 11 16 13 10 2 2 10 -21 22 -26 15 -38
17 -44 8 -4 -8 -13 -4 -25 12 -11 16 -26 23 -42 21 -13 -1 -24 1 -24 6 0 4
-20 19 -45 33 -37 20 -47 22 -51 11z"/>
<path d="M1242 1290 c-8 -13 -8 -20 -2 -20 6 0 13 7 17 15 9 24 -1 27 -15 5z"/>
<path d="M2415 1300 c-3 -5 1 -10 10 -10 9 0 13 5 10 10 -3 6 -8 10 -10 10 -2
0 -7 -4 -10 -10z"/>
<path d="M2360 1280 c-8 -5 -12 -12 -9 -15 4 -3 12 1 19 10 14 17 11 19 -10 5z"/>
<path d="M2417 1260 c-3 -13 0 -20 9 -20 26 0 14 -29 -22 -54 -34 -23 -34 -24
-10 -22 14 0 26 5 26 9 0 4 9 3 19 -3 14 -7 22 -7 27 2 4 6 3 13 -3 15 -5 2
-8 15 -5 28 2 15 0 25 -7 25 -6 0 -11 6 -11 14 0 24 -17 28 -23 6z"/>
<path d="M1550 1253 c0 -5 4 -14 8 -20 6 -10 12 -10 28 2 18 13 18 14 -5 8
-17 -4 -22 -3 -17 5 4 7 2 12 -3 12 -6 0 -11 -3 -11 -7z"/>
<path d="M995 1240 c-3 -5 -1 -10 4 -10 6 0 11 5 11 10 0 6 -2 10 -4 10 -3 0
-8 -4 -11 -10z"/>
<path d="M1445 1240 c-3 -5 -1 -10 4 -10 6 0 11 5 11 10 0 6 -2 10 -4 10 -3 0
-8 -4 -11 -10z"/>
<path d="M1496 1238 c3 -4 9 -8 15 -8 5 0 9 4 9 8 0 5 -7 9 -15 9 -8 0 -12 -4
-9 -9z"/>
<path d="M955 1220 c-3 -5 -15 -10 -25 -10 -10 0 -25 -6 -32 -12 -19 -18 -48
-35 -85 -52 -18 -8 -33 -22 -33 -30 0 -8 -8 -17 -19 -21 -31 -10 -52 -40 -44
-63 8 -20 8 -20 47 -1 24 12 48 16 64 12 20 -5 24 -3 19 10 -4 10 1 17 14 20
10 3 19 1 19 -3 0 -5 14 -4 30 2 24 8 35 7 56 -7 14 -9 35 -18 47 -19 12 -2
35 -8 50 -15 16 -6 32 -11 36 -11 24 0 111 -33 111 -42 0 -6 -9 -8 -22 -5 -12
4 -28 2 -34 -4 -9 -7 -18 -5 -33 10 -14 14 -22 17 -27 9 -4 -7 -2 -14 4 -16 7
-2 10 -8 7 -12 -3 -5 16 -11 42 -15 27 -3 77 -12 113 -20 36 -8 92 -17 125
-20 33 -4 85 -10 115 -15 30 -5 87 -12 125 -15 96 -7 122 -14 129 -31 3 -8 11
-14 19 -14 7 0 30 -9 52 -20 22 -11 45 -20 52 -20 7 0 13 -4 13 -10 0 -14 -7
-13 -80 15 -36 13 -94 31 -128 39 -80 18 -117 8 -41 -11 30 -8 56 -18 57 -23
2 -6 7 -8 12 -5 12 7 71 -16 64 -26 -3 -5 3 -6 12 -2 11 4 15 2 11 -4 -4 -6 0
-14 9 -17 8 -3 12 -2 9 4 -8 14 -1 13 41 -5 20 -8 41 -12 47 -8 6 4 7 1 2 -7
-6 -9 -2 -10 16 -5 l24 7 -24 -21 c-27 -23 -37 -26 -46 -11 -4 6 1 7 12 4 16
-5 16 -4 -1 10 -24 19 -56 21 -56 4 0 -18 78 -58 97 -51 10 4 14 2 10 -4 -9
-15 19 -37 38 -29 9 3 14 2 10 -3 -3 -5 20 -24 50 -41 55 -31 55 -31 38 -56
-11 -17 -18 -21 -23 -13 -6 8 -13 6 -26 -10 -10 -11 -25 -21 -32 -21 -20 0
-51 -41 -52 -67 0 -12 -5 -34 -12 -50 -6 -15 -10 -32 -9 -37 1 -5 -4 -16 -12
-25 -24 -28 -27 -39 -12 -44 20 -8 51 47 60 106 6 45 37 97 58 97 4 0 15 7 24
16 9 8 22 13 29 10 8 -3 14 -1 14 4 0 6 6 9 13 7 7 -1 11 7 10 23 l-3 25 15
-25 c13 -22 20 -20 16 4 -1 5 5 4 13 -4 14 -11 13 -16 -14 -47 -17 -18 -30
-42 -30 -51 0 -10 -4 -22 -9 -27 -15 -18 -34 -161 -24 -180 9 -16 15 -13 53
26 24 24 40 35 37 25 -6 -16 -5 -17 8 -6 8 7 12 17 8 23 -3 6 -1 7 5 3 6 -3
15 2 21 11 9 16 10 16 11 -4 0 -13 4 -23 9 -23 13 0 32 26 25 33 -10 10 -12
97 -2 91 4 -3 8 2 8 11 0 8 13 41 29 73 15 31 26 62 24 68 -2 6 4 14 13 18 14
5 15 4 4 -9 -16 -19 -10 -19 26 0 26 13 29 13 33 -2 1 -9 -4 -20 -13 -25 -10
-6 -16 -23 -16 -46 0 -20 -7 -61 -14 -90 -12 -45 -12 -53 -1 -48 9 3 12 0 9
-9 -3 -7 -17 -13 -31 -12 -14 1 -28 -4 -30 -11 -3 -7 1 -10 11 -6 10 4 16 1
16 -7 0 -7 3 -9 7 -6 3 4 17 -9 31 -29 19 -29 28 -35 47 -30 17 4 27 1 34 -11
10 -17 10 -17 11 -1 0 9 -4 20 -10 23 -5 3 -10 11 -10 18 0 8 3 8 12 -1 21
-21 27 -13 12 16 -7 15 -14 35 -14 46 0 13 20 0 78 -52 42 -38 87 -72 99 -76
12 -4 23 -14 25 -22 2 -11 6 -10 15 5 10 16 9 24 -8 45 -11 14 -17 26 -12 26
10 0 58 -73 114 -172 23 -43 44 -76 46 -75 1 2 -11 46 -27 98 l-30 94 26 22
c27 21 27 22 10 47 -9 15 -12 26 -6 26 6 0 8 5 4 12 -5 8 -11 6 -19 -5 -12
-17 -36 -23 -34 -9 3 20 -2 25 -12 12 -8 -11 -12 -12 -16 -2 -2 6 -9 10 -14 6
-5 -3 -15 9 -23 27 -9 21 -15 27 -19 18 -4 -11 -6 -10 -6 2 -1 10 9 19 23 21
17 4 23 1 19 -9 -3 -7 -1 -13 5 -13 5 0 12 -10 16 -23 5 -17 8 -19 15 -8 7 11
9 11 13 0 5 -15 38 -5 38 12 0 6 -6 9 -14 6 -7 -3 -19 0 -25 6 -15 15 -14 30
1 21 7 -5 9 -2 5 8 -4 12 4 17 35 22 28 5 55 20 91 54 79 71 125 97 161 87 17
-5 18 -4 6 4 -8 6 -28 11 -44 11 -32 0 -146 -48 -146 -61 0 -5 -7 -9 -16 -9
-8 0 -13 -4 -10 -9 4 -5 -2 -7 -13 -4 -11 3 -21 -2 -25 -12 -4 -12 -2 -16 8
-12 10 4 13 1 9 -8 -14 -39 -138 -45 -240 -13 -76 24 -111 52 -47 38 28 -6 33
-5 24 5 -7 9 -6 16 7 26 11 10 17 11 20 3 2 -7 13 -10 23 -7 12 3 20 0 20 -7
0 -7 12 -4 34 9 42 26 50 26 36 2 -13 -25 8 -41 24 -19 60 81 152 176 187 192
30 14 23 24 -19 24 -58 1 -91 17 -98 49 -10 50 -17 60 -22 34 -6 -38 7 -71 34
-81 14 -6 22 -15 19 -20 -4 -6 -10 -8 -15 -5 -20 12 -123 7 -132 -6 -7 -11
-11 -11 -14 -2 -4 8 -20 11 -50 7 -34 -4 -46 -1 -50 10 -3 9 -10 13 -15 10
-11 -6 -43 16 -46 32 -1 7 6 10 17 7 13 -4 20 0 20 9 0 8 15 23 34 33 19 11
33 22 31 26 -3 3 7 4 22 1 19 -4 24 -2 18 8 -6 10 7 12 59 8 36 -2 66 -1 66 3
0 8 -94 22 -148 23 -23 0 -31 4 -27 13 2 8 -6 19 -21 25 -15 7 -23 17 -20 25
3 8 1 11 -5 8 -5 -4 -7 -15 -4 -26 4 -13 2 -19 -9 -19 -9 0 -16 -4 -16 -10 0
-14 27 -12 33 3 4 9 7 9 18 0 15 -15 9 -24 -20 -26 -11 -1 -21 -5 -21 -9 0
-11 42 -27 53 -21 18 11 5 -14 -14 -26 -26 -15 -28 -13 -65 67 -13 28 -29 52
-36 52 -7 0 -20 5 -28 10 -13 8 -12 11 5 24 16 12 17 14 4 12 -10 -1 -23 -7
-31 -14 -8 -6 -18 -9 -22 -5 -4 4 -4 0 -1 -9 4 -9 13 -14 20 -11 22 8 55 -54
45 -83 -6 -15 -5 -24 3 -27 8 -3 6 -11 -7 -26 -14 -15 -15 -21 -6 -21 10 0 11
-3 3 -11 -6 -6 -10 -17 -9 -23 2 -6 1 -8 -1 -3 -3 4 -9 5 -14 2 -5 -4 -6 0 -3
8 3 8 1 18 -5 22 -7 4 -11 -4 -11 -19 0 -13 5 -26 10 -28 7 -2 5 -11 -4 -23
-14 -19 -15 -19 -26 10 -7 17 -10 54 -7 83 2 30 0 48 -4 40 -4 -7 -9 -31 -11
-53 -4 -36 -7 -40 -31 -39 -15 1 -27 -3 -27 -7 0 -5 -7 -9 -16 -9 -9 0 -23 -8
-30 -17 -13 -17 -13 -17 -14 2 -1 18 -2 18 -10 -2 -13 -33 -30 -28 -32 10 -3
57 -1 101 6 127 3 14 -4 4 -16 -21 -24 -48 -49 -57 -41 -15 6 31 -11 40 -108
61 -112 24 -159 37 -159 44 0 3 -25 7 -56 8 -30 1 -79 7 -107 12 -29 6 -71 12
-94 13 -24 2 -43 6 -43 9 0 3 -20 5 -44 4 -53 -3 -96 4 -96 16 0 5 7 6 15 3 8
-4 15 -2 15 3 0 5 -9 9 -20 10 -11 1 -20 -2 -20 -8 0 -5 -10 -9 -22 -9 -18 0
-20 2 -8 10 8 5 11 12 7 16 -3 4 -13 1 -21 -5 -12 -10 -20 -10 -37 0 -22 11
-22 12 -4 25 10 8 14 14 8 14 -7 0 -15 -5 -18 -10 -5 -8 -11 -7 -21 1 -10 8
-14 8 -14 0 0 -19 -22 -12 -27 9 -3 11 -9 20 -14 20 -5 0 -6 -7 -3 -15 4 -8 1
-15 -5 -15 -6 0 -11 5 -11 10 0 6 -9 10 -19 10 -11 0 -26 7 -35 15 -8 8 -22
12 -30 9 -9 -4 -16 -1 -16 6 0 8 -9 11 -25 8 -14 -3 -25 -1 -25 4 0 5 -4 7 -9
3 -5 -3 -12 -1 -16 5 -3 5 -15 10 -26 10 -10 0 -19 4 -19 9 0 15 42 17 80 5
19 -7 39 -9 44 -6 15 9 56 9 56 0 0 -4 11 -8 25 -8 14 0 25 5 25 11 0 5 4 8 9
5 5 -4 12 0 14 6 3 7 6 0 6 -16 1 -22 4 -27 12 -19 7 7 22 8 46 1 19 -5 41 -7
49 -4 8 3 14 1 14 -4 0 -6 10 -10 23 -11 21 0 21 -1 2 -9 -16 -7 -17 -9 -3 -9
9 -1 19 3 23 8 3 6 18 6 38 0 41 -12 57 -11 57 1 0 6 -15 10 -34 10 -19 0 -37
4 -40 9 -3 5 -16 9 -29 9 -20 0 -79 22 -144 54 -12 6 -20 15 -17 20 3 4 -4 8
-16 8 -12 0 -18 -4 -15 -10 10 -16 -11 -12 -25 5 -11 14 -7 19 13 16 4 0 7 3
7 8 0 5 -17 9 -37 9 -36 0 -36 -1 -18 -15 19 -15 19 -15 -5 -8 -14 4 -40 9
-57 12 -18 3 -31 8 -29 12 7 11 -49 7 -61 -5 -7 -7 -31 -15 -53 -19 -22 -4
-40 -10 -40 -13 0 -4 -10 -7 -22 -7 -13 -1 -39 -4 -58 -8 -29 -6 -26 -2 25 24
33 17 72 38 87 46 26 13 46 33 34 33 -3 0 -8 -4 -11 -10z m30 -90 c3 -5 1 -10
-4 -10 -6 0 -11 5 -11 10 0 6 2 10 4 10 3 0 8 -4 11 -10z m35 6 c0 -3 -4 -8
-10 -11 -5 -3 -10 -1 -10 4 0 6 5 11 10 11 6 0 10 -2 10 -4z m-82 -18 c-16 -5
-28 -16 -28 -24 0 -18 -12 -18 -36 2 -10 8 -13 13 -7 9 7 -3 25 1 40 9 16 8
35 15 43 15 8 0 3 -5 -12 -11z m342 -153 c8 -2 17 -4 20 -5 3 -1 8 -2 13 -1 4
0 7 -4 7 -9 0 -15 -62 -2 -80 17 -13 14 -13 15 5 8 11 -4 27 -8 35 -10z m652
-205 c6 0 9 -2 6 -5 -12 -12 -37 7 -30 23 6 16 7 15 10 0 2 -10 8 -18 14 -18z
m503 -1 c11 -17 -1 -21 -15 -4 -8 9 -8 15 -2 15 6 0 14 -5 17 -11z m-300 -29
c-3 -5 -12 -10 -18 -10 -7 0 -6 4 3 10 19 12 23 12 15 0z m-35 -21 c0 -6 -4
-7 -10 -4 -5 3 -10 11 -10 16 0 6 5 7 10 4 6 -3 10 -11 10 -16z m740 -27 c0
-14 -39 -32 -46 -21 -4 6 0 15 7 20 17 11 39 12 39 1z m-334 -24 c4 -6 2 -14
-4 -16 -7 -2 -19 -10 -27 -19 -8 -8 -15 -12 -15 -8 0 3 -10 -3 -22 -15 -22
-21 -38 -26 -38 -12 0 8 82 81 92 82 4 0 10 -5 14 -12z m-193 -15 c-11 -33
-16 -36 -26 -18 -7 12 -5 20 4 26 22 13 29 11 22 -8z m-183 -13 c0 -5 -4 -10
-10 -10 -5 0 -10 5 -10 10 0 6 5 10 10 10 6 0 10 -4 10 -10z m457 2 c8 -5 -6
-18 -43 -37 -31 -16 -51 -31 -46 -33 6 -2 45 15 88 37 75 38 107 44 84 16 -6
-8 -25 -17 -41 -20 -16 -4 -29 -11 -29 -16 0 -5 -11 -11 -25 -15 -14 -3 -25
-13 -25 -20 0 -8 -8 -18 -17 -21 -10 -4 -21 -11 -24 -16 -4 -6 -14 -7 -23 -4
-20 8 -22 85 -3 109 20 26 78 37 104 20z m-307 -22 c0 -5 -5 -10 -11 -10 -5 0
-7 5 -4 10 3 6 8 10 11 10 2 0 4 -4 4 -10z m-75 -40 c21 0 28 -19 11 -26 -10
-4 -24 3 -36 17 -23 29 -27 47 -4 25 8 -9 22 -16 29 -16z m215 -10 c0 -5 -2
-10 -4 -10 -3 0 -8 5 -11 10 -3 6 -1 10 4 10 6 0 11 -4 11 -10z m-150 -9 c0
-5 -7 -12 -16 -15 -24 -9 -28 -7 -14 9 14 17 30 20 30 6z m-86 -125 c-10 -20
-21 -36 -26 -36 -12 0 -10 10 13 47 27 44 35 37 13 -11z m221 34 c3 -5 1 -10
-4 -10 -6 0 -11 5 -11 10 0 6 2 10 4 10 3 0 8 -4 11 -10z m61 -39 c-3 -4 3 -7
12 -7 59 0 92 -5 88 -13 -3 -5 4 -12 17 -16 12 -3 17 -9 11 -11 -13 -5 -7 -44
6 -44 4 0 11 -8 14 -17 3 -10 -12 2 -34 27 -22 25 -40 42 -40 37 0 -11 22 -49
44 -74 20 -24 9 -32 -13 -10 -10 10 -10 7 -2 -16 14 -38 14 -42 -4 -27 -8 7
-15 18 -15 25 0 8 -6 16 -12 18 -8 3 -6 6 5 6 24 1 21 11 -19 56 -28 31 -30
33 -13 8 12 -18 20 -35 17 -39 -4 -3 -12 4 -18 16 -8 15 -15 19 -19 11 -5 -7
-16 7 -30 34 -12 25 -27 45 -32 45 -6 0 -7 5 -4 10 4 7 13 7 26 0 11 -6 17
-14 15 -19z m-276 -90 c-6 -12 -15 -21 -21 -21 -6 0 -2 14 8 30 19 33 31 24
13 -9z m179 -30 c-3 -6 -10 -7 -18 -2 -7 5 -10 14 -6 21 9 14 29 -2 24 -19z
m391 -31 c9 -16 8 -18 -5 -14 -10 4 -15 2 -13 -6 2 -7 -3 -15 -11 -18 -9 -3
-11 0 -6 8 5 8 1 19 -11 28 -18 13 -18 14 4 7 13 -4 22 -2 22 4 0 17 8 13 20
-9z m-150 -20 c0 -5 -4 -10 -10 -10 -5 0 -10 5 -10 10 0 6 5 10 10 10 6 0 10
-4 10 -10z m25 -30 c3 -5 1 -10 -4 -10 -6 0 -11 5 -11 10 0 6 2 10 4 10 3 0 8
-4 11 -10z"/>
<path d="M1080 1210 c-9 -6 -10 -10 -3 -10 6 0 15 5 18 10 8 12 4 12 -15 0z"/>
<path d="M1495 1210 c-3 -5 1 -10 9 -10 9 0 16 5 16 10 0 6 -4 10 -9 10 -6 0
-13 -4 -16 -10z"/>
<path d="M2058 1189 c-10 -17 -18 -44 -18 -60 0 -23 4 -29 23 -29 20 0 22 5
23 60 1 33 -1 60 -5 60 -3 0 -14 -14 -23 -31z"/>
<path d="M1270 1191 c0 -5 7 -15 17 -22 15 -13 15 -12 4 9 -12 23 -21 28 -21
13z"/>
<path d="M1246 1158 c3 -4 9 -8 15 -8 5 0 9 4 9 8 0 5 -7 9 -15 9 -8 0 -12 -4
-9 -9z"/>
<path d="M2409 1142 c-20 -17 -20 -19 -5 -25 10 -4 19 -1 22 8 6 13 54 22 54
10 0 -13 -37 -45 -52 -45 -10 0 -18 -5 -18 -11 0 -5 5 -7 11 -3 7 4 10 1 7 -7
-3 -8 -14 -14 -25 -15 -26 -1 -43 -12 -42 -27 0 -9 2 -8 6 1 2 6 9 10 13 7 5
-3 25 1 45 9 21 9 33 11 29 4 -4 -6 -1 -9 7 -6 7 2 13 16 14 30 0 14 6 33 14
42 28 33 -43 58 -80 28z m61 -56 c0 -2 -7 -7 -16 -10 -8 -3 -12 -2 -9 4 6 10
25 14 25 6z"/>
<path d="M1307 1143 c-4 -3 -7 -11 -7 -17 0 -6 5 -5 12 2 6 6 9 14 7 17 -3 3
-9 2 -12 -2z"/>
<path d="M1350 1124 c0 -17 18 -36 30 -32 7 2 4 10 -9 22 -12 11 -21 15 -21
10z"/>
<path d="M1446 1083 c-6 -14 -5 -15 5 -6 7 7 10 15 7 18 -3 3 -9 -2 -12 -12z"/>
<path d="M1500 1079 c0 -5 5 -7 10 -4 6 3 10 8 10 11 0 2 -4 4 -10 4 -5 0 -10
-5 -10 -11z"/>
<path d="M2385 1080 c-3 -5 -1 -10 4 -10 6 0 11 5 11 10 0 6 -2 10 -4 10 -3 0
-8 -4 -11 -10z"/>
<path d="M2487 1049 c-15 -17 -27 -40 -27 -51 0 -10 -4 -16 -10 -13 -5 3 -10
0 -10 -7 0 -11 -2 -11 -9 0 -6 11 -15 10 -44 -4 -21 -10 -37 -21 -37 -26 0 -4
15 1 33 11 27 15 34 16 45 4 7 -7 11 -22 7 -32 -6 -19 18 -36 35 -26 7 5 21
60 19 79 0 5 5 13 13 17 10 7 11 11 0 17 -10 7 -8 15 8 35 30 37 11 34 -23 -4z"/>
<path d="M934 1059 c-7 -13 25 -51 37 -43 5 3 9 0 9 -6 0 -6 8 -10 18 -8 9 2
16 -2 15 -9 -3 -14 49 -13 59 2 13 18 8 26 -11 20 -11 -3 -22 -1 -26 5 -3 5
-19 10 -36 10 -18 0 -29 5 -29 14 0 17 -27 29 -36 15z"/>
<path d="M1570 1030 c-23 -5 -23 -7 -6 -13 11 -4 24 -3 30 3 14 14 5 18 -24
10z"/>
<path d="M2424 1030 c-20 -8 -42 -30 -30 -30 13 0 56 24 56 32 0 9 1 9 -26 -2z"/>
<path d="M1623 1024 c-7 -3 -9 -12 -6 -20 8 -21 22 -17 20 6 -1 11 -1 20 -2
19 0 0 -5 -3 -12 -5z"/>
<path d="M1660 1010 c-12 -8 -11 -10 8 -10 12 0 22 5 22 10 0 13 -11 13 -30 0z"/>
<path d="M610 986 c0 -8 -34 -54 -75 -103 -41 -48 -75 -94 -75 -100 0 -7 -3
-13 -7 -13 -5 0 -13 -11 -20 -25 -16 -35 -9 -31 34 16 29 32 38 37 45 26 7
-13 12 -13 43 1 33 15 46 32 25 32 -5 0 -10 -5 -10 -11 0 -5 -4 -7 -10 -4 -10
6 -5 14 33 56 9 10 17 23 17 27 0 5 10 17 22 28 19 16 20 16 9 1 -8 -9 -12
-19 -9 -22 2 -2 12 10 23 27 16 28 16 31 1 25 -13 -5 -16 -1 -14 20 2 19 -2
28 -14 31 -11 2 -18 -3 -18 -12z m-61 -126 c-13 -16 -25 -28 -27 -25 -5 5 37
55 45 55 2 0 -6 -13 -18 -30z"/>
<path d="M1760 990 c0 -5 5 -10 11 -10 5 0 7 5 4 10 -3 6 -8 10 -11 10 -2 0
-4 -4 -4 -10z"/>
<path d="M2340 990 c-13 -8 -13 -10 2 -10 9 0 20 5 23 10 8 13 -5 13 -25 0z"/>
<path d="M1890 980 c0 -5 5 -10 10 -10 6 0 10 5 10 10 0 6 -4 10 -10 10 -5 0
-10 -4 -10 -10z"/>
<path d="M1920 971 c0 -5 5 -13 10 -16 6 -3 10 -2 10 4 0 5 -4 13 -10 16 -5 3
-10 2 -10 -4z"/>
<path d="M2532 925 c6 -14 15 -25 19 -25 4 0 9 -7 11 -15 2 -8 8 -11 14 -7 7
4 -1 19 -23 40 -30 29 -32 30 -21 7z"/>
<path d="M1967 933 c-12 -12 -7 -22 8 -17 8 4 15 10 15 15 0 11 -14 12 -23 2z"/>
<path d="M2035 880 c3 -5 8 -10 11 -10 2 0 4 5 4 10 0 6 -5 10 -11 10 -5 0 -7
-4 -4 -10z"/>
<path d="M620 869 c0 -5 5 -7 10 -4 6 3 10 8 10 11 0 2 -4 4 -10 4 -5 0 -10
-5 -10 -11z"/>
<path d="M606 833 c-6 -14 -5 -15 5 -6 7 7 10 15 7 18 -3 3 -9 -2 -12 -12z"/>
<path d="M1745 730 c3 -5 10 -10 16 -10 5 0 9 5 9 10 0 6 -7 10 -16 10 -8 0
-12 -4 -9 -10z"/>
<path d="M1785 710 c3 -5 11 -10 16 -10 6 0 7 5 4 10 -3 6 -11 10 -16 10 -6 0
-7 -4 -4 -10z"/>
<path d="M3000 677 c0 -17 79 -127 91 -127 12 0 8 7 -44 83 -42 60 -47 65 -47
44z"/>
<path d="M2756 533 c-6 -14 -5 -15 5 -6 7 7 10 15 7 18 -3 3 -9 -2 -12 -12z"/>
<path d="M2825 540 c-3 -5 -1 -10 4 -10 6 0 11 5 11 10 0 6 -2 10 -4 10 -3 0
-8 -4 -11 -10z"/>
<path d="M3186 535 c-4 -10 1 -15 16 -15 17 0 18 2 8 15 -7 8 -14 15 -15 15
-2 0 -5 -7 -9 -15z"/>
<path d="M3091 526 c-10 -12 -8 -13 8 -9 12 3 21 9 21 14 0 14 -16 11 -29 -5z"/>
<path d="M2716 474 c-4 -10 -12 -14 -24 -9 -14 5 -15 4 -4 -6 10 -11 15 -10
29 4 9 9 14 19 11 22 -3 3 -8 -2 -12 -11z"/>
<path d="M2665 430 c-3 -5 -1 -10 4 -10 6 0 11 5 11 10 0 6 -2 10 -4 10 -3 0
-8 -4 -11 -10z"/>
<path d="M2246 285 c-14 -11 -17 -21 -12 -49 6 -29 3 -38 -14 -48 -21 -14 -27
-38 -9 -38 6 0 23 12 39 27 24 22 27 30 17 50 -9 19 -6 27 13 48 22 23 22 25
4 25 -10 0 -27 -7 -38 -15z"/>
<path d="M2460 250 c-9 -29 -6 -37 11 -33 10 3 19 0 19 -6 0 -6 -5 -11 -10
-11 -6 0 0 -17 13 -37 13 -21 27 -47 32 -58 8 -20 8 -20 13 0 2 10 -1 21 -7
23 -6 2 -11 12 -11 22 0 10 -5 22 -10 25 -6 4 -10 14 -9 23 3 33 -1 44 -15 39
-8 -3 -17 -1 -20 6 -2 7 -5 10 -6 7z"/>
<path d="M2800 240 c0 -5 5 -10 11 -10 5 0 7 5 4 10 -3 6 -8 10 -11 10 -2 0
-4 -4 -4 -10z"/>
<path d="M1880 215 c0 -16 6 -25 15 -25 16 0 19 9 9 34 -9 25 -24 19 -24 -9z"/>
<path d="M2780 220 c0 -5 5 -10 11 -10 5 0 7 5 4 10 -3 6 -8 10 -11 10 -2 0
-4 -4 -4 -10z"/>
<path d="M2321 183 c13 -24 26 -43 31 -43 12 0 10 8 -7 27 -8 10 -22 27 -31
38 -8 11 -5 1 7 -22z"/>
<path d="M2796 181 c-4 -7 -5 -15 -2 -18 9 -9 19 4 14 18 -4 11 -6 11 -12 0z"/>
<path d="M2650 152 c1 -9 30 -48 30 -40 0 4 3 13 6 21 3 9 -3 16 -15 20 -12 3
-21 2 -21 -1z"/>
<path d="M2145 140 c-3 -5 -12 -7 -20 -4 -7 3 -23 -4 -35 -16 l-22 -22 23 7
c13 5 42 16 64 26 30 13 35 18 18 18 -12 1 -24 -3 -28 -9z"/>
<path d="M1892 87 c-12 -23 -27 -50 -34 -59 -7 -9 -9 -21 -4 -25 9 -10 46 33
46 54 0 8 5 11 12 7 8 -5 9 -2 5 9 -4 11 -1 17 8 17 19 0 19 7 2 25 -12 11
-17 6 -35 -28z"/>
<path d="M2025 90 c-3 -5 -3 -14 0 -20 3 -5 1 -10 -4 -10 -6 0 -11 -8 -11 -17
1 -14 6 -12 25 10 14 15 25 32 25 38 0 12 -27 12 -35 -1z"/>
<path d="M1970 10 c0 -5 5 -10 10 -10 6 0 10 5 10 10 0 6 -4 10 -10 10 -5 0
-10 -4 -10 -10z"/>
</g>
</svg>
