<?xml version="1.0" standalone="no"?>
<!DOCTYPE svg PUBLIC "-//W3C//DTD SVG 20010904//EN"
 "http://www.w3.org/TR/2001/REC-SVG-20010904/DTD/svg10.dtd">
<svg version="1.0" xmlns="http://www.w3.org/2000/svg"
 width="2000.000000pt" height="2000.000000pt" viewBox="0 0 2000.000000 2000.000000"
 preserveAspectRatio="xMidYMid meet">
<metadata>
Created by potrace 1.11, written by Peter Selinger 2001-2013
</metadata>
<g transform="translate(0.000000,2000.000000) scale(0.100000,-0.100000)"
fill="#000000" stroke="none">
<path d="M0 10000 l0 -10000 10000 0 10000 0 0 10000 0 10000 -10000 0 -10000
0 0 -10000z m7415 6400 c771 -48 1538 -298 2143 -696 119 -79 391 -272 507
-360 l30 -23 85 66 c568 438 1327 737 2105 829 180 21 613 29 805 15 1160 -88
2193 -604 2961 -1479 617 -703 992 -1561 1095 -2507 24 -218 24 -660 0 -875
-99 -910 -444 -1751 -1011 -2466 -70 -88 -85 -114 -81 -134 3 -14 11 -78 18
-142 29 -279 -48 -581 -202 -788 -71 -96 -211 -227 -318 -297 -195 -129 -390
-192 -703 -228 l-46 -6 -6 -98 c-22 -329 -147 -620 -358 -829 -197 -197 -504
-328 -830 -357 l-76 -7 -7 -87 c-18 -225 -87 -422 -208 -598 -64 -93 -233
-255 -334 -322 -233 -153 -591 -206 -918 -135 -142 30 -123 37 -193 -68 -173
-261 -473 -588 -995 -1084 -287 -272 -350 -324 -480 -393 -189 -103 -338 -141
-573 -148 -203 -6 -332 10 -497 63 -406 131 -680 415 -825 854 -21 63 -38 116
-38 117 0 1 -36 9 -80 18 -262 55 -584 211 -807 392 -247 201 -434 518 -502
851 -8 41 -17 76 -20 79 -2 3 -42 12 -88 19 -227 39 -428 125 -608 261 -94 70
-237 217 -298 305 -107 156 -193 359 -229 544 l-18 91 -89 17 c-524 99 -983
517 -1145 1041 -33 107 -55 230 -66 360 l-7 80 -122 125 c-470 483 -861 1070
-1125 1687 -348 814 -493 1810 -385 2643 117 908 528 1731 1204 2411 269 270
505 457 819 647 744 449 1639 667 2516 612z"/>
<path d="M6892 15780 c-782 -62 -1494 -338 -2077 -807 -463 -372 -876 -920
-1094 -1451 -170 -415 -247 -793 -258 -1267 -9 -424 31 -774 142 -1231 160
-659 471 -1281 921 -1842 117 -147 291 -342 305 -342 5 0 314 295 686 657 713
690 748 721 916 798 211 95 454 138 670 115 272 -28 512 -145 717 -350 153
-153 264 -326 329 -512 35 -100 61 -228 61 -298 0 -80 -5 -77 139 -72 211 8
375 -27 538 -113 111 -58 182 -115 289 -228 202 -215 309 -465 336 -788 l12
-136 108 -6 c617 -36 1065 -436 1138 -1017 22 -177 13 -158 78 -165 185 -19
297 -51 467 -135 367 -182 596 -485 716 -949 16 -62 31 -117 34 -121 3 -4 37
-16 77 -26 104 -27 340 -27 418 0 148 51 279 203 326 376 20 77 23 229 5 313
l-13 58 -1434 1470 c-931 954 -1441 1484 -1455 1511 -31 59 -37 177 -15 246
22 64 88 139 152 172 42 21 63 25 144 25 85 0 100 -3 141 -27 52 -31 141 -121
1769 -1792 1044 -1071 1129 -1156 1179 -1176 78 -30 160 -35 269 -16 115 20
232 64 313 118 187 125 289 458 202 655 -13 29 -409 435 -1423 1456 -1151
1160 -1410 1427 -1435 1474 -27 50 -30 67 -30 142 0 77 3 92 30 140 60 109
159 165 286 164 133 -2 30 94 1567 -1457 l1392 -1404 87 -7 c291 -25 538 51
701 214 101 101 149 238 139 392 -4 47 -12 103 -19 123 -10 27 -466 497 -1880
1934 -1026 1043 -1898 1928 -1936 1966 l-70 69 -544 -530 c-1013 -988 -1087
-1054 -1328 -1204 -530 -328 -1156 -423 -1708 -259 -395 117 -765 388 -942
690 -91 155 -125 295 -117 495 6 170 25 245 102 400 108 218 1 106 1605 1675
553 540 1006 985 1007 989 3 7 -308 231 -452 324 -356 231 -887 432 -1365 517
-270 47 -671 69 -918 50z"/>
<path d="M12495 15614 c-749 -75 -1386 -309 -1908 -700 -67 -50 -151 -118
-187 -149 -36 -32 -562 -545 -1170 -1139 -608 -595 -1202 -1175 -1320 -1291
-244 -237 -295 -297 -342 -393 -29 -60 -33 -76 -33 -152 0 -106 22 -155 111
-249 156 -166 409 -297 664 -342 117 -22 363 -17 487 10 281 59 543 186 763
370 117 97 590 554 1463 1408 395 388 406 396 532 397 147 1 -30 170 2156
-2054 1073 -1092 1955 -1989 1959 -1994 11 -11 140 163 243 329 219 352 371
692 482 1080 254 885 187 1803 -196 2648 -122 271 -308 572 -498 810 -627 783
-1480 1263 -2471 1393 -119 15 -634 28 -735 18z"/>
<path d="M6905 9791 c-80 -13 -163 -40 -237 -77 -60 -30 -143 -107 -726 -670
-361 -350 -692 -671 -734 -713 l-77 -76 10 -78 c11 -89 50 -219 87 -292 91
-182 267 -351 449 -431 69 -31 204 -64 261 -64 l42 0 773 746 c848 818 804
770 835 926 13 67 14 94 4 159 -36 246 -240 490 -462 553 -71 20 -162 27 -225
17z"/>
<path d="M8283 8549 c-68 -11 -226 -63 -283 -93 -29 -15 -318 -286 -812 -762
l-767 -739 6 -55 c15 -145 79 -309 166 -427 122 -164 337 -277 552 -290 l90
-5 821 775 c682 644 822 780 828 808 38 192 -2 428 -98 572 -122 184 -282 253
-503 216z"/>
<path d="M9344 7281 c-37 -6 -75 -39 -375 -322 -184 -174 -550 -519 -814 -768
-550 -518 -504 -456 -460 -626 37 -146 109 -286 197 -380 142 -152 398 -291
628 -340 l65 -14 51 52 c28 29 381 396 784 816 l733 763 9 95 c12 120 -2 261
-37 372 -58 184 -207 303 -433 347 -75 14 -273 17 -348 5z"/>
<path d="M10679 6082 c-40 -15 -140 -115 -799 -802 -414 -432 -769 -802 -788
-822 l-36 -38 22 -77 c62 -214 182 -384 322 -457 103 -55 238 -86 368 -86 129
0 209 18 320 72 102 50 244 178 677 612 383 383 585 621 666 783 l31 62 -17
83 c-38 190 -120 378 -207 474 -149 162 -407 253 -559 196z"/>
</g>
</svg>
