<?xml version="1.0" encoding="utf-8"?>
<!-- Generator: Adobe Illustrator 23.0.1, SVG Export Plug-In . SVG Version: 6.00 Build 0)  -->
<svg version="1.1" id="Layer_1" xmlns="http://www.w3.org/2000/svg" xmlns:xlink="http://www.w3.org/1999/xlink" x="0px" y="0px"
	 viewBox="0 0 200 200" style="enable-background:new 0 0 200 200;" xml:space="preserve">
<style type="text/css">
	.st0{fill:#000054;}
	.st1{fill:#E60028;}
	.st2{fill:#FFFFFF;}
</style>
<rect class="st0" width="200" height="200"/>
<path class="st1" d="M168.6,77.6c-1.3-11.3-7.2-21.8-16.2-28.9c-8.8-6.9-19.9-9.9-31.2-8.5c-7.9,1.2-14.8,4-20.3,8.5
	c-2.1-1.6-5.3-3.9-7.2-4.9c-18.3-10.2-40.8-6-53.6,9.8C31.5,64.3,29,77.3,32.8,92.3c2.2,8.9,7.4,17.7,14.4,24.4
	c0,4,1.7,7.8,4.7,10.6c2.2,2.1,5,3.4,7.8,3.7c0.4,3.1,1.9,6.1,4,8c2.1,2.1,5,3.4,8,3.7c0.5,3.1,2,6.4,4.2,8.4c2.2,2,5.7,4,9.3,4.5
	c1,3.8,3.1,7.7,8.1,9.3c0.8,0.3,2.4,0.7,4.5,0.7c2.5,0,5.6-0.7,8.4-3.2c0,0,0.1-0.1,0.1-0.1c0.2-0.2,0.7-0.7,1.3-1.2
	c5.1-4.8,9-8.8,11-12.2c3.5,1,7.8,0.8,10.5-1.3c3.4-2.4,4.8-6,4.8-9.4c3.3,0,6.7-1.4,8.8-3.4c2.2-2.1,3.6-5.6,3.4-9
	c2.9-0.1,6.6-1,9.5-4.1c3-3.2,3.1-7.4,2.5-10.2C166.3,101.9,170.1,89.6,168.6,77.6z"/>
<g>
	
		<image style="overflow:visible;opacity:0.37;" width="161" height="150" xlink:href="ABD82FD1.png"  transform="matrix(1 0 0 1 19.262 26.8158)">
	</image>
	<g>
		<path class="st2" d="M171.3,76.7c-1.4-11.7-7.5-22.6-16.8-30c-9.1-7.2-20.6-10.3-32.4-8.8c-8.3,1.2-15.3,4.2-21.1,8.9
			c-2.2-1.7-5.5-4-7.5-5.1c-19-10.5-42.4-6.3-55.7,10.2c-9,11.1-11.6,24.5-7.6,40.1c2.3,9.2,7.7,18.4,15,25.3c0,4.1,1.7,8.1,4.9,11
			c2.3,2.2,5.2,3.5,8.1,3.9c0.4,3.2,2,6.3,4.2,8.3c2.2,2.2,5.2,3.5,8.3,3.8c0.5,3.3,2.1,6.6,4.4,8.7c2.3,2.1,5.9,4.1,9.6,4.7
			c1.1,3.9,3.2,8,8.4,9.7c0.8,0.3,2.5,0.7,4.7,0.7c2.6,0,5.8-0.7,8.7-3.3c0.1,0,0.1-0.1,0.1-0.1c0.3-0.3,0.7-0.7,1.3-1.3
			c5.3-5,9.4-9.2,11.4-12.6c3.6,1.1,8.1,0.9,10.9-1.4c3.5-2.5,5-6.2,5-9.8c3.4,0,7-1.5,9.1-3.6c2.3-2.2,3.7-5.8,3.5-9.3
			c3.1-0.1,6.9-1,9.9-4.2c3.2-3.3,3.3-7.7,2.6-10.6C168.8,101.9,172.8,89.1,171.3,76.7z M51.3,117.3l14.6-14.1c0.7-0.5,5-3.1,8.4,1
			c2.7,3.2,1.5,6,1,6.9l-15.5,14.9c-1.9,0-3.9-0.8-5.6-2.3C52.4,122,51.3,119.7,51.3,117.3z M64.2,130.4l15.4-14.8
			c1-0.5,5-2.4,7.4-0.1c2.5,2.5,2.1,5.8,1.8,7.2l-16.4,15.5c-1.8,0.1-4-0.5-5.8-2.2C65.2,134.7,64.2,132.4,64.2,130.4z M76.6,142.6
			L93,127.2c1.5-0.3,5.3-0.6,7.4,1.9c1.4,1.7,1.4,4.7,1.1,6.3l-15.7,16.3c-2.1-0.3-4.9-1.5-6.7-3.2
			C77.7,147.1,76.7,144.6,76.6,142.6z M103.7,159c-0.6,0.6-1.1,1-1.4,1.3c-2.8,2.5-6.3,1.6-7.2,1.2c-2-0.7-3.5-2-4.5-5.9l15.8-16.4
			c2.1-1.2,5.2,0.6,6.2,1.9c1.4,1.7,1.9,4.2,2.1,5.5C114.3,147.8,112.3,150.9,103.7,159z M153.3,118.3c-2.5,2.6-6.1,2.5-8.1,2.2
			l-27.4-27.7c-1.2-1.2-3.1-1.2-4.4,0c-1.2,1.2-1.2,3.1,0,4.4l27.8,28.1c1,1.6,0.5,4.9-1.2,6.5c-1.5,1.5-5.3,2.4-7,1.3c0,0,0,0,0,0
			l-28.2-28.9c-1.2-1.2-3.1-1.2-4.4-0.1c-1.2,1.2-1.2,3.1-0.1,4.3l28.3,29c0.6,2,0.6,5.1-2.2,7.1c-1.3,1-4.1,1-6.1,0.2
			c-0.4-1.9-1.2-5-3.3-7.5c-1.9-2.3-5.6-4.6-9.5-4.6c-0.1-2.4-0.7-5.3-2.7-7.6c-2.9-3.4-6.9-4.2-10-4.2c0-2.9-0.7-6.6-3.8-9.7
			c-2.8-2.7-6.2-3.3-9.2-2.8c0-2.5-0.8-5.3-3.1-8c-5.6-6.7-13.4-4.7-17-1.9c-0.1,0.1-0.2,0.1-0.3,0.2l-13.5,13
			c-5.8-6-10.2-13.6-12.2-21.3c-3.5-13.7-1.4-25.1,6.4-34.7C54,41.5,74.1,37.9,90.5,47c1.5,0.8,4,2.6,5.9,4L73.2,73.6
			c-0.8,0.7-4.2,3.9-4.2,8.4c0,2,0.7,4.9,3.9,7.8c7.7,6.7,19.3,5.9,27.7-1.9c3.3-3.1,11-10.7,14.9-14.4l38.8,39.5
			C154.6,113.8,155.1,116.4,153.3,118.3z M156.8,106.7l-39-39.7c-0.6-0.6-1.4-0.9-2.2-0.9h0c-0.8,0-1.6,0.3-2.2,0.9
			c-0.1,0.1-12.6,12.4-16.9,16.4c-6,5.6-14.1,6.3-19.4,1.7c-1.8-1.6-1.8-2.7-1.8-3.1c0-1.7,1.5-3.3,2.1-3.8c0.1-0.1,0.1-0.1,0.2-0.2
			l25.7-25.1c5.2-4.8,11.8-7.8,19.7-9c10.1-1.3,20,1.4,27.8,7.6c8.1,6.3,13.4,15.8,14.5,25.9C166.4,87.6,163.4,98.1,156.8,106.7z"/>
	</g>
</g>
<path class="st2" d="M-165.2-59.8"/>
</svg>
