<?xml version="1.0" encoding="utf-8"?>
<!-- Generator: Adobe Illustrator 22.1.0, SVG Export Plug-In . SVG Version: 6.00 Build 0)  -->
<svg version="1.1" id="Layer_1" xmlns="http://www.w3.org/2000/svg" xmlns:xlink="http://www.w3.org/1999/xlink" x="0px" y="0px"
	 viewBox="0 0 496.2 496.2" style="enable-background:new 0 0 496.2 496.2;" xml:space="preserve">
<style type="text/css">
	.st0{fill:#56B48C;}
	.st1{fill:#FFFFFF;}
</style>
<path class="st0" d="M248.1,0C111.1,0,0,111.1,0,248.1c0,137,111.1,248.1,248.1,248.1c137,0,248.1-111.1,248.1-248.1
	C496.2,111.1,385.1,0,248.1,0z"/>
<g>
	<path class="st1" d="M82.2,270.8v3.6c0,11.3,3.2,18.6,16.1,18.6c7.4,0,14.6-4.7,14.6-14.9c0-10.8-5.4-15.2-21.7-20.6
		c-21.7-7.3-31.6-16.6-31.6-36.6c0-23.7,14.2-35.5,37.4-35.5c21.7,0,37.4,9.3,37.4,32.5v3.4H111c0-11.5-3.7-17.9-13.2-17.9
		c-11,0-13.9,6.8-13.9,14c0,7.4,2.2,12.2,12.5,16.4l18.8,8.1c18.3,8.1,23,17.1,23,32c0,25.6-15.6,37.1-42,37.1
		c-27.6,0-38.4-12.9-38.4-35.2v-4.9H82.2z"/>
	<path class="st1" d="M149.8,187.7h23.4v39.1h0.3c4.6-8,12.2-11.7,22.2-11.7c14.7,0,23.2,7.8,23.2,25.9v67.5h-23.4v-62.8
		c0-9.3-3-12.7-10-12.7c-8.3,0-12.4,5.1-12.4,15.1v60.4h-23.4V187.7z"/>
	<path class="st1" d="M234.2,245.4v-2.2c0-21,14.4-28.1,32-28.1c27.8,0,33,11.5,33,27.9v47.9c0,8.6,0.7,12.2,2.9,17.6h-22.3
		c-1.5-2.9-2.2-6.3-2.9-9.5h-0.3c-5.4,9.5-11.8,11.8-23.2,11.8c-16.2,0-22-13.9-22-26.1c0-17.3,6.9-24,23-28.4l13.2-3.6
		c6.9-1.9,9.3-4.6,9.3-10.7c0-6.9-2.9-11.2-10.8-11.2c-7.3,0-10.8,4.6-10.8,11.8v2.5H234.2z M276.8,263c-3.2,2.5-7.1,3.9-10,4.6
		c-9.5,2-13.2,6.6-13.2,14.7c0,6.9,2.5,12.7,8.8,12.7c6.3,0,14.4-3.9,14.4-14V263z"/>
	<path class="st1" d="M315.8,217.4h22.3v12.2h0.3c4.7-8.8,11.3-14.6,21-14.6c1.4,0,2.9,0.2,4.2,0.3v22.3c-2.5-0.2-4.7-0.3-7.3-0.3
		c-8.1,0-17.3,4.2-17.3,16.4v54.7h-23.4V217.4z"/>
	<path class="st1" d="M392.1,266.5v7.3c0,10.8,2.9,21.2,11.5,21.2c8,0,11-5.6,12.4-17.1h21c-0.8,21.2-10.7,33-33,33
		c-33.8,0-35.2-26.1-35.2-48.7c0-24.4,4.7-47,36.2-47c27.2,0,33.3,18.3,33.3,46.2v5.2H392.1z M415.9,252.6
		c-0.5-13.9-2.2-21.7-11.8-21.7c-9.3,0-12,9.5-12,18.1v3.6H415.9z"/>
</g>
</svg>
